<svg width="34" height="44" fill="none" xmlns="http://www.w3.org/2000/svg"><path fill-rule="evenodd" clip-rule="evenodd" d="M16.38.391c-2.908 1.95-6.586 3.534-10.048 4.327-1.78.408-3.253.608-5.38.733L0 5.507l.001 7.7c0 6.194.027 7.933.132 8.9.784 7.192 4.462 13.406 10.816 18.272 1.434 1.099 3.695 2.491 5.277 3.25L17 44l.863-.414c1.103-.53 2.09-1.1 3.462-2.003 6.067-3.99 10.232-9.539 11.877-15.826.754-2.883.796-3.545.797-12.56L34 5.492h-.2c-.477-.003-2.736-.179-3.342-.261-1.99-.272-4.105-.786-6.16-1.498-1.623-.562-4.622-2.02-6.077-2.956-.668-.43-1.226-.779-1.24-.776a14.26 14.26 0 00-.6.391zm1.479 3.473c3.61 2.068 8.237 3.641 12.112 4.118.439.053.89.116 1.004.138l.207.04-.04 6.544c-.035 5.468-.066 6.712-.188 7.567-.713 4.966-2.734 9.09-6.316 12.889-1.162 1.231-2.363 2.272-3.963 3.434-1.025.745-3.19 2.091-3.588 2.232-.262.092-2.695-1.376-4.435-2.677-1.245-.93-3.813-3.395-4.68-4.492-2.24-2.831-3.655-5.643-4.43-8.802-.624-2.545-.707-3.83-.708-10.961 0-6.295-.043-5.827.53-5.827.464 0 2.818-.42 4.05-.723 2.937-.723 6.328-2.08 8.79-3.517.364-.214.716-.39.78-.393.064-.002.457.191.875.43zm-2.26 3.344a37.607 37.607 0 01-9.429 3.179l-.515.099.038 5.596c.042 6.097.044 6.125.595 8.274 1.323 5.148 4.822 9.694 10.002 12.992l.696.444.924-.601c2.958-1.926 5.764-4.706 7.4-7.334.609-.978 1.517-2.823 1.87-3.8a22.95 22.95 0 00.541-1.803c.55-2.169.551-2.172.588-8.215l.035-5.553-.515-.099c-1.221-.234-3.168-.74-4.447-1.158-1.833-.597-3.04-1.086-4.87-1.972a50.976 50.976 0 00-1.538-.729l-1.375.68z" fill="url(#paint0_radial_3_939)"/><defs><radialGradient id="paint0_radial_3_939" cx="0" cy="0" r="1" gradientTransform="matrix(15.9109 20.733 -16.021 87.951 17.762 23.267)" gradientUnits="userSpaceOnUse"><stop stop-color="#75D7C3"/><stop offset="1" stop-color="#096D5D"/></radialGradient></defs></svg>