<svg width="24" height="24" fill="none" xmlns="http://www.w3.org/2000/svg"><path fill-rule="evenodd" clip-rule="evenodd" d="M22.6.005c-.28.016-.66.119-1.033.28-1.667.72-4.33 3-7.917 6.78-1.774 1.869-4.205 4.61-5.606 6.323-.098.12-.183.22-.188.22-.005 0-.178-.09-.385-.2-.664-.354-1.554-.8-2.107-1.056-1.412-.655-2.495-1.028-3.316-1.144a3.939 3.939 0 00-.777-.012c-.476.068-.82.27-1.045.614a1.45 1.45 0 00-.224.844.667.667 0 00.094.335c.057.095.077.116.327.352a31.679 31.679 0 012.15 2.217c1.62 1.857 3.116 4.102 5.081 7.63a9.8 9.8 0 00.323.554.692.692 0 00.62.252.678.678 0 00.401-.196c.096-.096.136-.171.263-.495 2.731-6.97 6.26-12.808 10.596-17.526A37.86 37.86 0 0120.981 4.6c.626-.639.79-.803 1.211-1.213 1.243-1.21 1.52-1.518 1.693-1.88A.94.94 0 0024 1.022a.826.826 0 00-.142-.503c-.138-.22-.453-.416-.773-.482A2.612 2.612 0 0022.69 0l-.09.005z" fill="#FAD15A"/></svg>