<svg width="103" height="42" fill="none" xmlns="http://www.w3.org/2000/svg"><path fill-rule="evenodd" clip-rule="evenodd" d="M53.01.137c-.212.147-.277.309-.247.615.033.34.105.422.396.455.42.048.704-.354.584-.828-.1-.398-.378-.49-.733-.242zm-3.7.89c-.081.322-.147 1.077-.147 1.678.002 1.335.236 1.89 1.505 3.57.483.64.878 1.21.878 1.267 0 .057-.203.545-.45 1.085-.872 1.9-1.669 4.858-1.669 6.195 0 .912-.202.376-.643-1.706-.748-3.527-1.187-4.497-2.645-5.85-.821-.763-1.807-1.421-1.925-1.287-.055.063.23 2.183.45 3.343.235 1.247.832 2.289 2.073 3.621 1.87 2.007 2.15 2.595 2.483 5.193.195 1.524.7 3.29 1.391 4.861.353.802 1.184 2.176 1.316 2.176.054 0 .206-.078.337-.174.225-.163.203-.236-.369-1.216-.889-1.525-1.169-2.41-1.182-3.74-.01-.962.04-1.223.353-1.872.459-.95.985-1.381 2.751-2.257 1.769-.876 2.443-1.405 3.755-2.939.574-.671 1.24-1.354 1.48-1.516.24-.162.438-.34.438-.394.002-.175-2.157-.1-3.032.104-1.282.3-2.281.895-3.292 1.96-1.323 1.396-2.944 4.359-2.944 5.383 0 .182-.069.374-.152.425-.113.07-.132-.525-.075-2.327.061-1.917.145-2.708.405-3.802.347-1.466 1.135-3.776 1.453-4.257.21-.32 1.133-.645 2.474-.872 1.842-.311 2.731-.738 3.684-1.766.53-.572 1.073-1.514 1.08-1.873.003-.172-.683-.44-1.129-.44-.576 0-1.989.525-2.736 1.016-.416.273-1.182.876-1.703 1.34-.86.767-.926.803-.716.395.127-.247.703-.94 1.28-1.54 1.43-1.485 2.085-2.895 1.748-3.765-.308-.797-2.4.892-2.97 2.396a9.17 9.17 0 00-.404 1.54c-.219 1.43-.27 1.671-.339 1.602-.037-.037-.12-.83-.181-1.761-.135-2.016-.424-2.918-1.156-3.614-.493-.468-.96-.766-1.201-.766-.07 0-.192.263-.274.584zM2.245 30.431C.82 30.984.167 31.844.167 33.166c0 .93.474 1.98 1.112 2.464.232.176 1.135.652 2.006 1.057.87.406 1.777.924 2.016 1.152 1.015.971.808 2.713-.397 3.332-.623.32-1.736.256-2.569-.149-.804-.391-1.367-1.035-1.847-2.11-.184-.415-.377-.701-.428-.636-.052.064-.074.696-.05 1.402l.043 1.285.625.315c2.116 1.065 4.704.939 6.027-.294 1.152-1.072 1.177-3.034.056-4.3-.633-.714-1.036-.964-2.757-1.706-.75-.323-1.534-.75-1.743-.948-.79-.753-.816-1.997-.055-2.753 1.094-1.087 2.816-.586 3.895 1.132.528.84.89 1.04.769.427-.04-.2-.111-.708-.16-1.13-.086-.754-.1-.773-.659-1.012-1.279-.544-2.809-.65-3.806-.263zm7.324-.055c0 .04.164.212.364.383l.364.31.042 4.601c.044 4.826-.02 5.556-.51 5.817-.649.345-.172.396 3.402.362l3.662-.035.304-1.118c.167-.615.307-1.2.31-1.298.004-.099-.276.12-.622.486-.877.928-1.503 1.17-3.312 1.282l-1.488.092v-5.035h1.196c1.428 0 2 .199 2.337.812l.24.438.039-1.3c.039-1.328-.025-1.637-.254-1.232-.25.445-.932.664-2.267.729l-1.291.062v-4.908l1.29.081c1.552.097 2.531.486 2.988 1.186.16.245.368.446.463.447.096 0 .147-.043.114-.097-.032-.054-.16-.557-.286-1.118l-.226-1.02h-3.43c-1.886 0-3.43.033-3.43.073zm10.063-.004c0 .054.144.23.319.391.439.405.508 1.34.454 6.183-.036 3.224-.08 4.001-.242 4.243-.108.163-.272.296-.364.296a.166.166 0 00-.166.164c0 .122.43.17 1.655.186 1.193.016 1.655-.022 1.655-.133 0-.085-.132-.213-.294-.285-.413-.183-.472-.522-.487-2.793l-.014-2.006h.642c.443 0 .706.07.85.23.116.126.637 1 1.159 1.94 1.057 1.905 1.389 2.315 2.182 2.697.556.267 2.186.514 2.186.331 0-.055-.265-.332-.588-.615-.35-.306-.981-1.158-1.556-2.101-.533-.873-1.16-1.811-1.395-2.084l-.426-.497.606-.23c1.274-.483 2.026-1.52 2.032-2.8.005-1.321-.694-2.317-1.977-2.813-.646-.25-1.07-.291-3.483-.343-1.511-.033-2.747-.015-2.747.04zm15.424.155c.326.804.25 1.083-1.448 5.358-1.746 4.39-2.217 5.403-2.613 5.614-.499.265-.21.38.953.38.655 0 1.191-.03 1.191-.065 0-.037-.119-.185-.265-.33-.361-.358-.325-.785.188-2.17l.437-1.184h4.341l.427 1.25c.47 1.378.545 2.07.235 2.189-.543.207-.036.31 1.523.31.947 0 1.722-.035 1.722-.08 0-.043-.151-.197-.336-.341-.484-.378-.772-1.004-2.904-6.314l-1.918-4.775-.815-.04c-.74-.035-.806-.017-.718.198zm5.317-.118c-.036.058.132.262.375.454.455.361.556.582 3.989 8.687.876 2.067 1.088 2.465 1.299 2.433.194-.03.517-.694 1.42-2.932 3.138-7.767 3.062-7.595 3.587-8.117.277-.274.503-.529.503-.565 0-.036-.537-.066-1.192-.066-.655 0-1.192.04-1.192.089 0 .048.101.199.225.335.336.368.13 1.122-1.284 4.707-.671 1.7-1.284 3.283-1.36 3.519-.134.405-.362.587-.362.288 0-.077-.6-1.596-1.333-3.375-.733-1.78-1.431-3.608-1.551-4.062-.205-.774-.204-.841.009-1.075.125-.137.227-.289.227-.337 0-.127-3.282-.11-3.36.017zm12.63-.052c0 .032.178.235.397.452l.397.395v9.78l-.393.365c-.216.2-.355.402-.309.447.046.046 1.703.083 3.682.083h3.598l.276-1.02c.152-.56.317-1.122.367-1.249.16-.41-.181-.248-.733.347-.762.822-1.546 1.117-3.237 1.22l-1.397.085v-5.039l1.092.007c1.361.01 1.936.197 2.282.744.147.233.312.425.367.428.054.003.099-.587.099-1.31 0-1.411-.078-1.546-.57-.98-.352.406-1.032.577-2.31.582l-.96.003v-4.843l1.092.06c1.681.094 2.187.267 2.927 1.002.354.352.668.615.698.586.03-.03-.054-.521-.185-1.093l-.239-1.04-3.47-.035c-1.91-.02-3.472-.009-3.472.023zm10.196.04c0 .052.163.224.364.382l.364.289v10.047l-.364.288c-.2.16-.364.331-.364.383 0 .051 1.631.093 3.625.093h3.625l.265-1.02c.146-.56.308-1.122.362-1.249.172-.41-.127-.246-.887.485-.545.524-.93.77-1.441.92-.768.227-2.455.274-2.769.078-.168-.106-.204-.771-.24-4.372-.05-4.917-.002-5.54.45-5.956.177-.162.32-.332.32-.378 0-.046-.745-.084-1.655-.084s-1.655.043-1.655.094zm9.666-.015c0 .044.181.247.402.452l.402.373-.038 4.953-.037 4.953-.364.311c-.2.171-.365.345-.365.385 0 .041 1.653.059 3.672.04l3.671-.035.294-1.118c.162-.615.297-1.203.301-1.307.004-.104-.305.145-.688.552-.955 1.017-1.576 1.274-3.085 1.278-.76.002-1.257-.055-1.357-.155-.118-.117-.16-1.425-.16-5.071V31.08l.332-.304c.182-.168.33-.343.33-.389 0-.046-.744-.084-1.654-.084-.91 0-1.656.036-1.656.08zm9.667-.023c0 .03.179.233.397.45l.398.395v9.78l-.393.365c-.216.2-.355.402-.309.447.046.046 1.71.083 3.698.083h3.614l.147-.559c.081-.307.232-.85.336-1.208.105-.356.19-.697.19-.756 0-.226-.21-.091-.464.298-.319.487-1.152 1.082-1.787 1.276-.255.078-1.075.17-1.821.205l-1.358.063v-5.005l1.358.054c1.477.058 1.773.17 2.17.82l.246.406.039-1.3c.02-.715.002-1.335-.043-1.38-.044-.043-.18.047-.303.2-.376.471-.831.613-2.174.677l-1.293.062v-4.854l1.16.052c1.696.077 2.087.211 2.838.977.358.365.674.64.702.612.053-.052-.096-.805-.34-1.722l-.132-.494H85.97c-1.89 0-3.438.025-3.438.056zm13.705.175c.379.928.427.737-1.316 5.228-1.834 4.723-2.052 5.208-2.53 5.62-.178.155-.325.33-.325.39 0 .059.537.107 1.192.107.656 0 1.192-.046 1.192-.102 0-.056-.12-.204-.265-.328-.363-.308-.326-.743.18-2.135l.43-1.184 2.127-.036 2.128-.036.41 1.154c.583 1.634.615 1.828.367 2.203-.117.178-.213.355-.213.394 0 .132 3.294.073 3.377-.06.044-.073-.075-.202-.266-.289-.463-.21-.948-1.249-3.128-6.715l-1.77-4.438-.842-.002c-.75-.001-.832.024-.748.229zm-71.263.809c.694.426 1.015 1.116 1.015 2.185 0 1.73-.827 2.432-2.867 2.432h-.974v-5.031l1.167.055c.92.044 1.27.12 1.659.358zm11.922 4.459c.337.89.613 1.63.613 1.644 0 .015-.835.027-1.855.027-1.182 0-1.837-.048-1.805-.132.283-.742 1.702-4.519 1.754-4.666.037-.107.203.186.373.658.169.468.583 1.579.92 2.469zm61.84 1.473c.075.17-.17.198-1.772.198-1.24 0-1.846-.047-1.822-.14.02-.076.423-1.176.897-2.444l.86-2.306.875 2.248c.481 1.236.914 2.336.962 2.444z" fill="#fff"/></svg>