<svg width="124" height="24" fill="none" xmlns="http://www.w3.org/2000/svg"><path d="M5.442 19l1.463-6.286L2 8.487l6.48-.56L11 2l2.52 5.928 6.48.559-4.905 4.227L16.558 19 11 15.667 5.442 19zm25 0l1.463-6.286L27 8.487l6.48-.56L36 2l2.52 5.928 6.48.559-4.905 4.227L41.557 19 36 15.667 30.442 19zm25.001 0l1.462-6.286L52 8.487l6.48-.56L61 2l2.52 5.928 6.48.559-4.905 4.227L66.558 19 61 15.667 55.443 19zm24.999 0l1.463-6.286L77 8.487l6.48-.56L86 2l2.52 5.928 6.48.559-4.905 4.227L91.558 19 86 15.667 80.442 19zm25 0l1.463-6.286L102 8.487l6.48-.56L111 2l2.52 5.928 6.48.559-4.905 4.227L116.557 19 111 15.667 105.442 19z" fill="#EEBB58"/></svg>