<svg width="87" height="142" fill="none" xmlns="http://www.w3.org/2000/svg"><path d="M80.756.566c-1.131.312-2.516.703-3.101.878-1.444.41-1.97.995-1.97 2.127 0 1.21.78 2.05 1.892 2.05.76 0 6.183-1.386 6.886-1.757 1.306-.703 1.287-2.947-.02-3.63-.741-.37-1.307-.331-3.687.332zM64.977 4.82c-3.55.976-3.96 1.21-4.233 2.283-.273 1.054.527 2.342 1.561 2.518.605.117 5.423-1.015 7.49-1.776 2.205-.82 1.698-3.98-.643-3.961-.43 0-2.302.429-4.175.936zm-12.21 3.259c-3.863 1.053-4.35 1.248-4.76 1.756-.741.936-.449 2.478.566 3.063.78.469 1.053.43 4.662-.546 3.745-1.015 4.116-1.268 4.116-2.751 0-.722-.117-.995-.566-1.464-.722-.722-1.56-.722-4.018-.058zm-36.674.781c-.917.468-1.482 1.073-1.97 2.127-.468.975-.468.995-.468 8.507v7.532l-1.073.117c-1.327.137-2.575.8-3.16 1.679l-.449.663v16.138h-.526c-2.634.019-6.067 2.302-7.393 4.897C-.04 52.706 0 50.481 0 93.762c0 28.43.059 40.138.215 40.88.468 2.205 2.184 4.566 4.194 5.737a18.2 18.2 0 002.204 1.034l1.287.507 18.57.059c20.385.058 19.897.078 22.258-1.112 2.535-1.288 4.194-3.122 4.915-5.464.39-1.21.39-1.951.39-41.407 0-28.782-.058-40.451-.214-41.193-.37-1.736-1.132-3.083-2.497-4.468-1.522-1.503-2.985-2.283-4.896-2.576l-1.366-.215V29.485l-.448-.663c-.586-.878-1.834-1.542-3.102-1.679l-1.034-.097v-7.454c0-8.235-.02-8.371-1.248-9.737-1.21-1.347-.82-1.308-12.25-1.308-8.954 0-10.378.04-10.885.313zm20.15 5.678l.059 1.815h-2.068c-2.282 0-2.984.214-3.375 1.073a2.279 2.279 0 000 1.951c.39.859 1.093 1.073 3.375 1.073h2.048v6.635H17.751v-6.908c0-3.805.059-7.064.117-7.22.117-.292 1.054-.312 9.227-.273l9.09.059.058 1.795zm4.72 23.865v7.22H13.07v-14.44h27.894v7.22zm6.204 11.98c.546.313 1.248.86 1.521 1.23 1.034 1.346 1.132 1.834 1.21 6.05l.078 3.96h-8.953c-9.949 0-10.261.04-11.685 1.23-.995.858-1.619 2.166-1.853 3.824-.117.78-.156 11.474-.137 26.48l.059 25.152.507 1.074c.605 1.307 1.541 2.263 2.711 2.809.84.391 1.23.41 10.105.469l9.227.058-.06 5.601c-.058 5.346-.077 5.639-.487 6.4-.565 1.073-1.814 2.107-3.16 2.654l-1.092.449H27.114c-17.38 0-18.082-.02-19.058-.371-1.424-.527-2.77-1.6-3.316-2.634l-.448-.859V93.957c0-30.616.058-40.178.234-40.783.35-1.19 1.794-2.634 3.082-3.083 1.034-.351 1.833-.37 19.799-.312l18.726.039 1.034.566zm2.77 41.779v26.245H32.205l-.292-.429c-.273-.391-.312-3.162-.312-25.816 0-22.655.039-25.426.312-25.816l.293-.43h17.731v26.246zm-1.033-74.424c-.82.488-1.131 1.912-.644 2.888.469.878.995.995 4.858.995 3.96 0 4.232-.078 4.74-1.288.37-.858.156-1.736-.546-2.322-.566-.488-.625-.488-4.311-.488-2.185 0-3.882.098-4.097.215zm13.302.352c-.76.76-.8 2.068-.098 2.887l.469.546 4.194.06 4.193.058.664-.586c.546-.488.643-.702.643-1.483 0-.78-.097-.995-.643-1.483l-.624-.566h-8.232l-.566.566zm15.411 0c-.643.643-.76 1.619-.292 2.536.468.878.995.995 4.915.995h3.629l.565-.566c.469-.468.566-.741.566-1.483 0-.741-.097-1.014-.566-1.483l-.565-.566h-7.686l-.566.566zM48.59 26.187c-1.034.566-1.327 2.244-.546 3.142.35.41 1.034.683 3.55 1.385 3.765 1.035 4.408 1.074 5.189.293.448-.468.565-.742.565-1.463 0-1.503-.39-1.757-4.096-2.752-3.472-.937-3.94-.995-4.662-.605zm13.442 3.376c-.585.215-1.17.917-1.287 1.522-.137.741.312 1.932.838 2.205.566.293 7.003 1.99 7.569 1.99 1.58 0 2.516-1.639 1.775-3.083-.39-.741-.741-.897-4.506-1.893-3.258-.858-3.804-.956-4.39-.741zM76.25 34.09c-.448.449-.565.741-.565 1.385 0 1.62.253 1.776 4.545 2.908 3.433.917 3.94.917 4.72-.02.683-.82.663-1.912-.039-2.673-.468-.488-1.014-.702-3.53-1.366-3.668-.975-4.35-1.014-5.13-.234z" fill="#000"/></svg>