<svg width="145" height="157" fill="none" xmlns="http://www.w3.org/2000/svg"><path d="M55.23.306c-.093.154-.74.307-1.417.307-1.417 0-9.21 1.47-9.672 1.838-.154.122-1.078.46-2.002.766-.924.306-2.864 1.072-4.312 1.746-1.448.674-2.895 1.348-3.234 1.47-.555.215-2.526 1.44-5.02 3.125-5.145 3.492-9.18 8.577-10.412 13.203-.462 1.716-.554 5.514-.123 6.495.216.582.277.551.585-.245.185-.49.339-1.011.339-1.165 0-.551 2.834-6.096 3.111-6.096.154 0 .462-.367.708-.858 1.233-2.389 6.684-6.678 10.473-8.21 1.047-.428 2.31-.95 2.803-1.194 1.17-.521 3.604-1.195 6.776-1.9 1.94-.428 3.85-.55 8.933-.55 6.129 0 6.653.06 10.01.887 4.189 1.042 8.624 3.156 12.013 5.668 1.97 1.47 8.655 7.811 11.057 10.538.74.796.616.766-2.464-.552-4.805-2.083-9.764-4.656-11.828-6.126-7.392-5.27-13.922-7.506-22.084-7.506-3.173 0-9.456.705-11.951 1.379-5.113 1.317-6.253 1.685-7.146 2.267a68.89 68.89 0 01-2.033 1.164c-.893.46-1.016.643-.862 1.409.492 2.42 4.928 6.096 10.04 8.302a92.153 92.153 0 012.958 1.287c.955.428 6.099 1.715 9.21 2.297.862.153 4.65.49 8.47.735 11.982.797 17.926 1.808 24.918 4.29 2.403.857 4.497 1.837 6.037 2.879 2.095 1.409 4.928 3.982 4.651 4.227-.061.092-1.14-.337-2.402-.919-4.836-2.328-12.105-3.982-25.042-5.728-3.542-.49-6.807-1.042-7.238-1.195-.709-.306-7.392-1.532-10.78-2.022-1.387-.184-3.173-.551-8.009-1.654-4.127-.95-7.577-2.696-9.949-5.085-1.109-1.103-2.433-2.788-2.926-3.768-.493-.95-1.047-1.777-1.232-1.838-.4-.123-2.495 2.848-2.71 3.89-.37 1.838.831 5.637 2.463 7.781 2.157 2.818 3.389 3.86 7.454 6.25 2.341 1.378 7.67 3.737 9.672 4.288 7.146 1.96 11.581 2.512 20.329 2.543 8.532.03 16.14 1.409 21.099 3.89 3.234 1.593 4.96 2.91 7.27 5.484 2.248 2.542 3.51 4.84 4.62 8.516 1.416 4.657 1.478 4.902 2.402 9.834.677 3.43 1.14 5.054 1.879 6.464 1.17 2.175 3.881 5.024 6.93 7.23 1.941 1.378 1.879 1.715-.154.704-1.448-.766-5.113-4.289-6.314-6.127-.647-1.01-1.663-3.033-2.218-4.534-.554-1.47-1.14-2.91-1.294-3.216-.154-.276-.831-2.175-1.509-4.197-2.68-8.118-3.665-9.956-7.361-13.786-3.48-3.614-8.348-5.759-14.908-6.555a65.689 65.689 0 01-4.282-.644c-.77-.184-4.374-.429-8.008-.612-9.61-.43-10.873-.613-17.71-2.635-1.51-.46-7.547-3.155-7.855-3.523-.093-.092-.801-.551-1.571-.98-.77-.46-1.725-1.164-2.125-1.593-.4-.429-.832-.766-.986-.766-.524 0-6.253-6.096-7.639-8.118-2.31-3.34-2.125-3.186-2.156-2.267 0 1.348.955 4.074 1.817 5.177.462.582 1.017 1.41 1.232 1.808.555 1.041 4.929 5.33 6.5 6.371 5.667 3.768 8.87 5.208 14.784 6.648 5.144 1.256 5.483 1.287 21.1 2.359 7.515.52 11.673 1.348 15.739 3.186 2.002.919 5.606 3.492 5.944 4.227.062.154.555.736 1.14 1.287 1.602 1.624 1.232 1.685-.4.123-3.265-3.125-6.87-4.871-13.337-6.403-1.448-.368-7.793-.613-18.173-.766-11.49-.153-12.352-.367-20.33-5.116a124.764 124.764 0 00-4.096-2.358c-.462-.246-.831-.552-.831-.705 0-.123-.524-.582-1.14-.98-3.82-2.451-10.165-10.692-10.226-13.296-.03-1.133-.647-.765-.647.399 0 .582-.123 1.072-.308 1.072-.154 0-.308.674-.308 1.532 0 .827.154 1.531.308 1.531.185 0 .308.276.308.582 0 1.195 1.787 4.871 3.419 7.077 2.803 3.737 8.347 8.516 11.951 10.293.955.46 2.71 1.562 3.912 2.45 2.772 2.022 5.575 3.707 8.162 4.933 4.22 1.96 7.3 5.943 9.487 12.284 1.602 4.626 1.786 6.77 1.14 13.02-.709 6.525-.555 10.905.4 13.387.709 1.868 2.988 4.656 4.374 5.391.862.429.893.521.893 2.819 0 3.094.524 5.024 2.095 7.658 3.08 5.177 9.764 8.394 16.417 7.934 4.774-.306 7.947-2.787 9.21-7.26.646-2.206.677-2.665.338-4.074-.185-.889-.708-2.083-1.14-2.696-1.94-2.788-7.115-3.401-7.669-.889-.308 1.318.03 1.502.955.521.893-.98 1.355-.796 1.971.705.986 2.328-.862 5.728-3.88 7.23-1.294.612-2.065.765-3.913.796-2.464 0-2.68-.061-4.096-1.287-2.28-1.93-3.82-5.483-3.82-8.73v-1.624l1.633-.521c1.632-.551 4.682-2.267 4.404-2.512-.092-.092-1.262.215-2.618.644-2.957.949-3.511 1.01-3.295.245.092-.276.37-1.655.616-3.064.554-2.971 1.108-4.963 2.402-8.792 1.971-5.882 2.68-9.098 2.71-12.13 0-2.544-.923-6.71-1.94-8.701-.708-1.379-2.772-4.32-3.696-5.177-.339-.337-.493-.643-.308-.705.4-.153 4.189 1.9 4.682 2.482.215.245.77 2.39 1.294 4.81 1.632 7.75 3.51 14.122 4.928 16.817.338.582.585 1.164.585 1.287 0 .368 4.066 7.413 4.897 8.486 3.327 4.288 9.272 8.577 17.126 12.376 8.994 4.319 10.195 4.993 11.858 6.647a10.235 10.235 0 013.081 7.353c0 2.144-1.386 6.157-2.803 8.118a83.105 83.105 0 00-1.51 2.113c-.585.858-2.217 2.451-4.004 3.922-.77.612-2.033 1.715-2.833 2.45-.771.736-2.218 1.992-3.204 2.849-.985.827-2.68 2.328-3.788 3.339-1.14.981-2.495 2.053-3.019 2.39-.554.337-1.016.674-1.016.735 0 .061.215.766.492 1.562.832 2.421 2.095 3.891 4.374 5.024 1.972 1.011 2.156 1.042 5.575 1.042 3.204 0 3.82-.092 5.822-.858 1.201-.49 2.217-1.011 2.217-1.164 0-.153-.616-.521-1.324-.858-.739-.337-1.879-1.194-2.526-1.899-1.078-1.195-1.139-1.378-.985-2.696.338-2.726 1.694-5.054 5.944-9.986a61.234 61.234 0 004.929-6.709l1.57-2.482 2.434-.184c1.324-.091 2.772-.306 3.203-.428 1.602-.491 5.113-2.237 5.514-2.727.246-.306.831-.735 1.324-.98.462-.245.862-.613.862-.858 0-.214.37-.704.801-1.133.431-.399 1.048-1.226 1.356-1.808.8-1.531 2.156-7.873 2.156-10.017 0-.98.154-1.961.308-2.114.4-.398 1.694-2.634 2.31-3.982 2.556-5.545 2.156-13.449-.955-19.024-2.618-4.718-4.713-6.403-12.813-10.446-5.76-2.85-6.438-3.4-4.22-3.431 1.663 0 6.622-2.022 9.641-3.89.893-.583 1.078-.859.831-1.104-.277-.275-.431-.275-.585-.03-.123.183-1.047.643-2.064 1.01-1.016.368-2.156.889-2.525 1.134-1.14.735-4.097 1.348-6.438 1.348h-2.218l-.492-1.225c-.924-2.298-.678-4.228 1.139-9.344 2.187-6.127 2.495-9.068 1.448-13.785-.739-3.4-1.54-5.484-2.741-7.291-.524-.766-.955-1.532-.955-1.685 0-.184-.339-.582-.77-.92-.432-.336-.77-.765-.77-.918 0-.368-2.588-2.573-4.836-4.136-2.187-1.531-5.514-3.155-9.333-4.564-1.787-.674-3.789-1.532-4.466-1.93-2.033-1.195-4.682-3.89-6.777-7.015-3.172-4.657-4.558-6.403-7.084-8.915-2.957-2.91-6.376-5.146-10.842-7.046-2.556-1.072-7.3-2.297-9.086-2.297-.462 0-.924-.153-1.017-.307C65.271.123 63.238 0 60.312 0c-2.926 0-4.96.123-5.082.306zM96.442 33.27c2.095 1.072 3.019 1.838 6.715 5.483 4.035 4.044 6.653 7.934 8.162 12.254.431 1.225.554 2.45.493 5.974-.062 7.842-.493 11.181-1.201 9.251a7.19 7.19 0 00-.74-1.225c-1.262-1.624-2.556-5.208-2.864-7.873-.801-7.23-2.002-11.12-4.713-15.134-.985-1.44-1.909-2.787-2.094-2.94-.185-.184-.709-.797-1.14-1.379-.462-.582-1.694-1.991-2.803-3.155-1.109-1.134-1.879-2.053-1.694-2.053.154 0 .986.368 1.879.797zM59.45 64.117c2.217 1.164 5.236 3.34 6.807 4.963.554.551 1.478 1.96 2.063 3.125l1.078 2.083-.03 4.595c0 3.247-.154 5.147-.493 6.433-.278 1.011-1.14 4.166-1.94 7.046-.802 2.849-1.603 5.974-1.787 6.893-.185.919-.37 1.746-.4 1.807-.34.398-2.064-.858-2.711-1.93-1.88-3.186-2.834-11.304-1.694-14.429.308-.888.43-2.757.43-7.045 0-5.82 0-5.82-1.016-8.547-.554-1.532-1.2-3.033-1.447-3.37-.247-.368-.863-1.225-1.355-1.93-1.078-1.501-.955-1.501 2.495.306zm46.048 3.799c1.078 1.072 3.634 2.757 5.39 3.584.801.398 1.14.766 1.294 1.47.369 1.839 2.156 4.902 4.096 6.954 3.45 3.738 6.13 5.208 13.337 7.414 4.097 1.256 7.208 2.88 8.471 4.411 2.956 3.554 3.973 8.486 2.618 12.591-.986 3.094-1.078 3.216-1.664 1.838-.677-1.593-3.141-5.055-4.373-6.066-.801-.674-1.048-1.194-1.325-2.726-.462-2.696-1.756-5.024-4.035-7.322-3.142-3.124-6.776-5.207-12.813-7.352-.863-.306-2.126-.888-2.772-1.317-1.386-.888-4.128-3.431-4.128-3.86 0-.153-.339-.674-.739-1.164-.4-.46-1.17-1.746-1.756-2.85-.554-1.102-1.17-2.205-1.386-2.45-.369-.46-2.279-5.116-2.248-5.483 0-.092.246.153.523.582.278.429.955 1.195 1.51 1.746zM80.333 69.14c3.018 2.696 5.606 6.74 7.7 12.04 2.187 5.544 4.343 9.374 7.146 12.62.801.95 1.479 1.808 1.479 1.9 0 .552-7.023-5.391-8.502-7.168-.492-.582-1.14-1.256-1.416-1.47-.308-.215-.555-.552-.555-.705 0-.184-.4-.828-.924-1.44-1.263-1.593-3.85-6.678-4.62-9.16-.616-1.93-1.848-7.75-1.663-7.75.03 0 .646.52 1.355 1.133zm18.296 9.221c2.495 5.79 5.975 9.558 10.349 11.182.77.275 3.758 1.072 6.622 1.776 2.896.674 5.791 1.502 6.469 1.808.677.306 1.848.827 2.618 1.164.77.337 1.879 1.01 2.464 1.532l1.078.95-1.386-.338c-1.725-.367-5.39-1.01-9.24-1.623-6.962-1.073-10.165-2.604-14.477-6.924-1.633-1.593-4.035-6.126-4.898-9.16a48.664 48.664 0 00-.8-2.603c-.154-.337-.154-.552-.062-.46.092.092.678 1.318 1.263 2.696zm8.84 23.834c.832.398 2.68.888 10.596 2.726 7.3 1.715 10.842 3.921 12.813 7.965l.893 1.838-.985.827c-.555.46-1.232.858-1.51.858-.246 0-.739.214-1.078.459-.77.582-.185.582 1.941.031 1.571-.429 1.571-.398 1.755.306.524 2.022-1.139 6.28-3.234 8.363-1.293 1.287-4.066 3.094-4.774 3.094-.246 0-.185-.52.123-1.623.863-2.88.832-5.943-.092-9.313-.893-3.247-1.201-3.921-2.649-6.066-1.325-1.96-3.234-3.277-9.98-6.892-3.203-1.716-5.914-3.186-6.006-3.278-.216-.245 1.263.245 2.187.705z" fill="#3A3A3A"/><path d="M17.621 30.573c-.616.398-3.018 4.166-4.497 7.076-2.187 4.197-2.834 6.985-2.618 11.365.185 3.922.4 4.749 2.68 9.374 2.649 5.392 2.833 5.944 2.833 8.15 0 2.297-.77 4.012-2.402 5.452-.924.797-4.128 2.45-4.744 2.45-.215 0-.739.185-1.17.43-.462.245-1.663.735-2.68 1.072-2.402.858-4.312 2.573-4.805 4.35-.4 1.501-.215 6.923.277 7.781.216.398.308 0 .432-1.501.184-2.053.985-4.044 2.187-5.33 1.016-1.103 3.572-2.42 5.729-2.972 2.495-.643 5.451-1.96 6.653-3.002.523-.429 1.355-1.501 1.848-2.42.862-1.532.924-1.808.924-5.147 0-3.032-.093-3.737-.678-4.962-.4-.797-.708-1.563-.708-1.655 0-.429 1.17 1.318 1.971 2.941.462.92 1.047 1.9 1.263 2.145.708.796 2.033 4.105 2.218 5.514.123 1.225.03 1.532-.801 2.573-1.017 1.256-2.65 2.144-4.497 2.512-.585.092-1.17.306-1.263.46-.092.153-.493.275-.893.275s-1.048.123-1.448.276c-.4.153-1.479.52-2.402.796-1.633.49-5.545 2.758-5.545 3.217 0 .122-.462.827-1.047 1.562-2.31 2.941-2.31 7.965-.062 14.52 1.11 3.156 1.972 6.25 2.187 7.843.154 1.103.062 1.685-.43 2.665-.679 1.287-1.603 1.777-3.851 1.961-.493.061-.955.245-1.017.429-.215.643 1.448 1.164 3.85 1.164 2.126 0 2.557-.092 4.097-.98 1.479-.858 1.848-1.256 2.68-2.972.554-1.072.986-2.359 1.016-2.818.031-.49.124-1.195.247-1.624.215-.674.277-.582.739.889.308.919.524 2.634.524 3.829 0 2.512-.524 3.584-2.31 4.963-.647.49-1.479 1.164-1.91 1.501l-.74.612 2.865-.153 2.865-.153.37-8.731c.215-4.809.523-9.741.708-10.997.739-5.116 3.727-8.578 8.255-9.528 2.371-.52 5.852.031 10.842 1.685 2.279.766 4.897 1.624 5.79 1.869l1.664.46 1.447-.92c1.91-1.225 3.019-2.42 3.881-4.196l.709-1.44.184 1.194c.124.644.062 2.084-.092 3.186-.154 1.134-.154 2.114 0 2.267.4.43 2.618-.398 3.511-1.286.432-.43.925-1.317 1.14-2.022.431-1.379.493-6.127.154-7.934l-.246-1.134-.863.46c-.493.245-1.293.827-1.755 1.286-.493.46-1.263 1.042-1.725 1.287-.462.245-1.11.674-1.386.95-.74.674-3.789 2.144-4.436 2.144-.308 0-.647.123-.739.306-.308.521-2.033.337-3.111-.337-1.016-.612-1.294-1.194-1.817-3.706-.123-.613-.524-.98-1.54-1.44-1.232-.551-1.386-.735-1.571-1.838-.154-.92-.462-1.44-1.232-2.022-.986-.735-1.047-.919-1.047-2.635 0-1.715-.062-1.838-.832-2.144-3.85-1.501-3.82-1.44-3.019-4.779.247-1.041.524-3.186.647-4.748l.185-2.85-1.91-3.828a97.725 97.725 0 01-5.513-13.48c-.524-1.592-1.109-3.339-1.294-3.829-.462-1.256-.862-3.032-1.016-4.227-.062-.552-.216-.95-.34-.92-.584.093-4.311 7.874-5.266 10.968-.74 2.39-.74 7.995-.031 10.967.647 2.634.616 2.849-.154 1.133-.8-1.807-1.109-7.29-.585-10.538.462-2.849 1.109-4.717 2.926-8.394.77-1.562 1.417-2.971 1.417-3.124 0-.184.123-.307.277-.307.4 0 .708-.98.431-1.256-.154-.153-.4-.153-.585-.03zm14.046 50.393c0 .061-.463.398-.986.796l-1.017.674.863-.766c.8-.735 1.14-.95 1.14-.704zm-13.245 6.219c-1.201.796-3.665 3.247-4.312 4.258-1.232 1.991-1.633 3.829-1.448 6.74.123 1.5.277 3.155.37 3.675.154.858-.308-.582-1.51-4.84-.708-2.512-.646-4.626.185-6.065.37-.674.832-1.195 1.047-1.195.185 0 .524-.215.77-.49.524-.644 4.282-2.543 5.052-2.573.523 0 .523.06-.154.49z" fill="#3A3A3A"/></svg>