<svg width="60" height="60" viewBox="0 0 60 60" fill="none" xmlns="http://www.w3.org/2000/svg">
<path d="M9.40061 0.368172C7.26045 0.943424 5.82731 1.78713 4.10755 3.53206C2.38778 5.23864 1.3177 7.13697 0.55336 9.76396C-0.0963304 12.0074 -0.191873 17.1847 0.362274 20.0993C1.35592 25.2383 3.59162 30.3197 7.27956 35.7462C11.4261 41.8439 17.6555 48.1525 23.2925 51.93C29.7512 56.2635 34.8341 58.7371 39.1144 59.6C43.624 60.5204 49.7196 59.8109 53.5031 57.8934C57.4968 55.8609 60 52.0067 60 47.884C60 46.0816 59.656 45.1228 58.7006 44.1449C58.1274 43.5888 47.7514 37.472 46.3565 36.8967C44.2355 35.9955 41.9807 37.3186 39.1144 41.1344C38.0825 42.4958 37.0507 43.4546 36.4201 43.6272C35.6175 43.8189 31.7003 41.5754 28.4327 39.0635C24.1906 35.7845 19.509 30.1279 16.9103 25.1424C16.4708 24.2795 16.4326 24.0686 16.6045 23.5125C16.8529 22.7838 17.6937 21.9401 19.4899 20.5979C22.2989 18.5078 23.6938 16.7053 23.6938 15.1138C23.6938 14.7495 23.5027 14.0592 23.2543 13.5798C22.0505 11.2788 15.7638 0.790024 15.3625 0.406521C14.923 0.0230179 14.6937 -0.0153313 12.8401 0.00384521C11.4643 0.00384521 10.3369 0.118896 9.40061 0.368172ZM17.1205 9.09283C19.0504 12.3526 20.6364 15.133 20.6364 15.248C20.6364 15.6891 19.7765 16.5328 17.4071 18.3736C14.1395 20.9239 13.3752 21.9785 13.3752 23.9343C13.3752 25.104 14.3306 27.0407 16.509 30.358C21.0377 37.1843 26.9613 42.6301 33.5156 45.9282C35.4455 46.8869 36.4392 47.002 37.7959 46.3884C39.1144 45.7939 39.8787 45.0845 41.5985 42.8793C43.1463 40.9235 44.4648 39.6771 45.0189 39.6771C45.2864 39.6771 56.1401 45.8898 56.5223 46.2733C57.6497 47.3855 56.6942 51.1821 54.7452 53.2722C52.7005 55.4582 48.1718 56.9347 43.4711 56.9347C38.7895 56.9347 34.5665 55.3815 27.7448 51.163C23.6174 48.6127 20.8466 46.4075 17.0822 42.6492C12.1331 37.7212 8.90379 33.3685 6.40057 28.2679C4.08844 23.57 3.03747 19.4857 3.03747 15.2289C3.03747 12.2951 3.43875 10.3392 4.43239 8.24913C6.0184 4.93184 8.99933 2.99516 12.4007 3.11021L13.6236 3.14856L17.1205 9.09283Z" fill="#68CAB7"/>
</svg>
