<svg width="60" height="60" viewBox="0 0 60 60" fill="none" xmlns="http://www.w3.org/2000/svg">
<path d="M27.2656 0.0738029C21.4453 0.685444 16.4453 2.62448 11.7708 6.11213C10.1823 7.29637 7.27865 10.1984 6.09375 11.7861C3.58073 15.1566 1.88802 18.6312 0.898438 22.5093C0.208333 25.1901 0 26.947 0 30.0052C0 33.0634 0.208333 34.8202 0.898438 37.501C2.2526 42.7846 4.84375 47.3003 8.77604 51.2174C11.3151 53.7551 13.5156 55.3427 16.6667 56.9174C19.4792 58.3228 22.487 59.2598 25.7682 59.7543C27.8906 60.0797 32.0833 60.0797 34.1667 59.7674C40.8724 58.7523 46.5104 55.9283 51.224 51.2174C55.1693 47.2743 57.7604 42.7585 59.1016 37.501C59.7917 34.7551 60 33.0504 60 30.0052C60 26.947 59.7917 25.1901 59.1016 22.5093C57.7474 17.2258 55.1562 12.7231 51.224 8.79294C48.6979 6.2683 46.4974 4.68063 43.3333 3.09297C40.5339 1.6875 37.4609 0.737499 34.2969 0.269009C32.526 0.0217514 28.8281 -0.0823593 27.2656 0.0738029ZM32.9948 3.58749C39.8958 4.44638 46.276 7.93404 50.5078 13.1525C57.7344 22.0799 58.5807 34.1695 52.6432 43.8907C50.625 47.2092 47.2135 50.6188 43.8932 52.6359C33.2031 59.1557 19.401 57.3728 10.8203 48.3674C1.5625 38.6332 0.924479 23.8107 9.33594 13.3477C13.6068 8.03815 19.974 4.48543 26.8229 3.6005C28.112 3.44434 31.7057 3.43132 32.9948 3.58749Z" fill="#68CAB7"/>
<path d="M26.9802 13.556C24.6364 13.9724 22.1625 15.0265 20.2093 16.432C18.2171 17.8635 15.9906 20.4662 15.0661 22.4573L14.7015 23.2121L12.8786 23.2641C11.3291 23.3032 11.0036 23.3422 10.6781 23.5635C9.96194 24.045 9.74058 25.1771 10.2093 25.945C10.5739 26.5436 11.1599 26.7518 12.501 26.7518C13.5166 26.7518 13.6078 26.7778 13.5296 26.973C13.4906 27.1032 13.4125 27.8319 13.3734 28.5997L13.2953 30.0052H12.2015C10.9255 30.0052 10.4567 30.2004 10.1442 30.8641C9.88381 31.4367 9.89683 32.0744 10.2093 32.5689C10.6 33.2196 11.0687 33.3888 12.4099 33.3888H13.5817L13.725 33.9353C14.5583 37.1627 16.0036 39.6873 18.3213 41.9387C19.7406 43.3182 20.8343 44.112 22.3968 44.9058C24.7536 46.1161 27.1494 46.6627 30.001 46.6627C32.8526 46.6627 35.2484 46.1161 37.6052 44.9058C39.7796 43.7997 41.9802 41.9777 42.2536 41.0668C42.4489 40.4291 42.2276 39.7654 41.7067 39.31C40.8213 38.5812 40.1312 38.6983 38.8421 39.8435C37.0713 41.4051 35.0661 42.4332 32.7744 42.9798C31.251 43.3312 28.4776 43.2921 26.9802 42.9017C23.9333 42.1209 21.3421 40.4421 19.5062 38.0606C18.5947 36.8764 17.2406 34.1435 17.2406 33.4929C17.2406 33.4408 20.5869 33.3888 24.6625 33.3888C32.8656 33.3888 32.6182 33.4148 33.126 32.5689C33.6078 31.7881 33.3604 30.6689 32.6182 30.2264C32.2666 30.0182 31.5635 30.0052 24.4671 30.0052H16.6807L16.7718 29.1203C16.8239 28.6388 16.9151 27.91 17.0062 27.5066L17.1494 26.7518L26.4463 26.7258L35.7562 26.6867L36.1859 26.2052C36.7588 25.5936 36.876 24.9689 36.5635 24.3313C36.4203 24.058 36.1468 23.7196 35.9515 23.5765C35.5869 23.3032 35.4177 23.3032 27.1234 23.2381L18.6599 23.173L19.0765 22.5224C19.3109 22.158 20.0921 21.2861 20.8213 20.5703C22.6833 18.7354 24.376 17.7724 26.9802 17.0957C28.5557 16.6923 31.3812 16.6792 32.9958 17.0827C35.2354 17.6423 37.1494 18.6573 38.9073 20.219C39.8187 21.0388 40.3526 21.26 40.9906 21.1039C41.4984 20.9737 42.0974 20.3881 42.2536 19.8676C42.475 19.1258 42.2406 18.5922 41.2901 17.6813C39.0895 15.5861 36.0687 14.0895 32.9177 13.543C31.5114 13.2957 28.3604 13.3087 26.9802 13.556Z" fill="#68CAB7"/>
</svg>
