<svg width="19" height="20" viewBox="0 0 19 20" fill="none" xmlns="http://www.w3.org/2000/svg">
<path fill-rule="evenodd" clip-rule="evenodd" d="M17.8914 0.504065C17.67 0.516438 17.3694 0.597889 17.0737 0.725603C15.754 1.29571 13.6462 3.10071 10.8059 6.09293C9.40145 7.5726 7.47743 9.74315 6.36834 11.0992C6.29055 11.1943 6.2236 11.2724 6.21957 11.2727C6.21554 11.273 6.07829 11.2019 5.91458 11.1147C5.38854 10.8343 4.68391 10.4811 4.24671 10.2786C3.12836 9.76044 2.27144 9.46489 1.6212 9.37305C1.46074 9.35039 1.13391 9.34538 1.00595 9.36363C0.629211 9.41734 0.356714 9.5773 0.178807 9.84917C0.0550184 10.0383 -0.0102569 10.2843 0.00131479 10.5178C0.00670727 10.6266 0.02856 10.7041 0.0761021 10.7831C0.12139 10.8583 0.136754 10.8748 0.334861 11.0614C0.974691 11.6639 1.54349 12.2502 2.03752 12.8166C3.31996 14.2867 4.5034 16.0641 6.05958 18.8573C6.18078 19.0748 6.29585 19.272 6.3153 19.2955C6.43763 19.4435 6.62787 19.5209 6.80593 19.4951C6.93505 19.4764 7.03695 19.4266 7.12351 19.34C7.19925 19.2642 7.2309 19.2046 7.3315 18.9478C9.4937 13.4298 12.2877 8.80863 15.7203 5.07313C16.0312 4.73481 16.1182 4.64377 16.6096 4.14266C17.1056 3.6369 17.2356 3.50672 17.5688 3.18216C18.5526 2.22386 18.7714 1.98074 18.9086 1.69315C18.9812 1.54106 19 1.46244 19 1.30959C19 1.14483 18.9719 1.04504 18.8879 0.911465C18.7786 0.737723 18.5288 0.582032 18.276 0.530012C18.2036 0.51512 18.0177 0.497512 17.9622 0.500292C17.9451 0.501149 17.9133 0.502846 17.8914 0.504065Z" fill="white"/>
</svg>
