<svg width="34" height="44" viewBox="0 0 34 44" fill="none" xmlns="http://www.w3.org/2000/svg">
<path fill-rule="evenodd" clip-rule="evenodd" d="M16.3802 0.390991C13.4718 2.3414 9.79359 3.92531 6.33215 4.71808C4.55228 5.12562 3.07921 5.32648 0.951823 5.45142L0 5.50732L0.000974099 13.2061C0.00168243 19.4012 0.0275364 21.1396 0.132989 22.107C0.917292 29.2993 4.59531 35.513 10.9488 40.3792C12.3831 41.4779 14.6443 42.8701 16.2255 43.6283L17.0005 44L17.8635 43.5856C18.9656 43.0564 19.9525 42.4855 21.3246 41.5832C27.3921 37.5936 31.5569 32.0441 33.2018 25.7566C33.9559 22.8742 33.998 22.2119 33.999 13.1978L34 5.49084L33.8008 5.49006C33.3233 5.48826 31.0644 5.31222 30.4583 5.22953C28.4681 4.95817 26.3532 4.44414 24.298 3.73244C22.6746 3.17023 19.6762 1.71127 18.221 0.775611C17.5533 0.346337 16.9955 -0.00273179 16.9814 1.61133e-05C16.9672 0.00276401 16.6967 0.178716 16.3802 0.390991ZM17.8587 3.86442C21.4681 5.93205 26.0957 7.50496 29.9714 7.98155C30.4096 8.03539 30.8613 8.09756 30.975 8.11963L31.1817 8.15982L31.1412 14.704C31.1073 20.1722 31.0765 21.4165 30.9539 22.2708C30.2412 27.2366 28.2197 31.3616 24.6378 35.1596C23.4762 36.3912 22.2754 37.4322 20.6754 38.5945C19.6498 39.3395 17.4853 40.6854 17.0873 40.8257C16.8252 40.918 14.3924 39.45 12.6517 38.1491C11.4074 37.2194 8.83858 34.7538 7.97105 33.6568C5.7321 30.8258 4.31747 28.0141 3.54264 24.8549C2.91833 22.3096 2.83528 21.0249 2.83422 13.894C2.83324 7.59916 2.79066 8.06699 3.36476 8.06699C3.82819 8.06699 6.18171 7.64648 7.41342 7.34361C10.3513 6.62125 13.7421 5.26448 16.2031 3.82655C16.5684 3.61316 16.9196 3.43661 16.9837 3.4342C17.0477 3.43189 17.4415 3.62544 17.8587 3.86442ZM15.5994 7.20802C12.6702 8.66063 9.3863 9.76769 6.17003 10.3868L5.65524 10.4859L5.69323 16.0818C5.73467 22.179 5.73661 22.2069 6.28849 24.3558C7.61051 29.5039 11.1103 34.0502 16.2899 37.3482L16.9862 37.7915L17.9097 37.1906C20.8684 35.2654 23.6737 32.4852 25.3099 29.8569C25.9188 28.8786 26.8271 27.0337 27.1803 26.0572C27.3341 25.6321 27.5776 24.8206 27.7215 24.2538C28.2719 22.085 28.2721 22.0821 28.3094 16.0387L28.3439 10.4857L27.8294 10.3871C26.6077 10.1528 24.6614 9.64609 23.3823 9.22935C21.5487 8.63186 20.3412 8.1429 18.5119 7.25696C17.6765 6.85233 16.9846 6.52448 16.9743 6.52834C16.9641 6.53229 16.3454 6.83808 15.5994 7.20802Z" fill="url(#paint0_radial_3_939)"/>
<defs>
<radialGradient id="paint0_radial_3_939" cx="0" cy="0" r="1" gradientTransform="matrix(15.9109 20.733 -16.021 87.951 17.7615 23.267)" gradientUnits="userSpaceOnUse">
<stop stop-color="#75D7C3"/>
<stop offset="1" stop-color="#096D5D"/>
</radialGradient>
</defs>
</svg>
