<svg width="24" height="24" viewBox="0 0 24 24" fill="none" xmlns="http://www.w3.org/2000/svg">
<path fill-rule="evenodd" clip-rule="evenodd" d="M22.5997 0.00513411C22.32 0.0207636 21.9402 0.123649 21.5668 0.284972C19.8998 1.0051 17.2373 3.28511 13.6496 7.06475C11.8755 8.93381 9.44517 11.6756 8.04422 13.3884C7.94595 13.5086 7.86139 13.6072 7.8563 13.6076C7.85121 13.608 7.67785 13.5182 7.47105 13.408C6.80658 13.0539 5.91651 12.6077 5.36427 12.3519C3.95162 11.6974 2.86919 11.3241 2.04783 11.2081C1.84514 11.1794 1.43231 11.1731 1.27067 11.1962C0.794792 11.264 0.450586 11.4661 0.225861 11.8095C0.0694969 12.0484 -0.0129561 12.3591 0.00166079 12.6541C0.00847234 12.7915 0.0360757 12.8894 0.096129 12.9891C0.153335 13.0842 0.172742 13.1051 0.422983 13.3407C1.23119 14.1018 1.94967 14.8424 2.57371 15.5577C4.19363 17.4147 5.68851 19.6599 7.65421 23.1881C7.8073 23.4629 7.95265 23.712 7.97722 23.7417C8.13174 23.9286 8.37204 24.0264 8.59697 23.9938C8.76007 23.9702 8.88878 23.9073 8.99811 23.7979C9.09379 23.7022 9.13376 23.6268 9.26085 23.3025C11.992 16.3324 15.5213 10.4951 19.8572 5.77659C20.2499 5.34923 20.3598 5.23424 20.9806 4.60125C21.607 3.9624 21.7712 3.79797 22.1921 3.388C23.4348 2.17751 23.7112 1.8704 23.8846 1.50714C23.9763 1.31503 24 1.21571 24 1.02264C24.0001 0.814517 23.9646 0.688467 23.8584 0.519745C23.7203 0.300282 23.4048 0.103619 23.0854 0.0379094C22.994 0.0190992 22.7592 -0.00314235 22.689 0.000368877C22.6675 0.00145189 22.6273 0.00359509 22.5997 0.00513411Z" fill="#FAD15A"/>
</svg>
