<svg width="103" height="42" viewBox="0 0 103 42" fill="none" xmlns="http://www.w3.org/2000/svg">
<path fill-rule="evenodd" clip-rule="evenodd" d="M53.0102 0.136706C52.7982 0.284035 52.7333 0.445705 52.7632 0.751545C52.7964 1.09146 52.868 1.1738 53.159 1.20721C53.5785 1.25536 53.8627 0.852701 53.7431 0.379405C53.6425 -0.0185161 53.3652 -0.110334 53.0102 0.136706ZM49.3104 1.02739C49.2288 1.34875 49.1627 2.10355 49.1635 2.70458C49.1651 4.03962 49.3993 4.59579 50.6677 6.27561C51.1506 6.91531 51.5457 7.48503 51.5457 7.54186C51.5457 7.59855 51.343 8.08684 51.0952 8.62696C50.2237 10.527 49.427 13.4853 49.427 14.822C49.427 15.7336 49.2252 15.1984 48.7839 13.1158C48.0362 9.58908 47.5975 8.61855 46.1392 7.26522C45.3176 6.50279 44.332 5.84467 44.2135 5.9795C44.1587 6.04199 44.4441 8.16169 44.6635 9.32218C44.8993 10.5693 45.4956 11.6107 46.737 12.9433C48.6063 14.9498 48.8875 15.5382 49.2198 18.1356C49.4148 19.6604 49.92 21.4257 50.611 22.997C50.9639 23.7995 51.7948 25.1733 51.9272 25.1733C51.9809 25.1733 52.1325 25.095 52.2643 24.9994C52.4892 24.8358 52.4671 24.763 51.8952 23.7826C51.006 22.2584 50.7263 21.3736 50.7132 20.043C50.7037 19.0805 50.7527 18.8201 51.066 18.1713C51.5247 17.2213 52.0508 16.7897 53.8174 15.9141C55.5856 15.0378 56.2604 14.5095 57.5723 12.9752C58.1464 12.3036 58.8124 11.6214 59.0526 11.459C59.2927 11.2967 59.4895 11.1195 59.49 11.0651C59.4916 10.8902 57.3326 10.9641 56.4576 11.1691C55.1758 11.4692 54.1769 12.0641 53.1664 13.1293C51.8428 14.5247 50.2215 17.4877 50.2215 18.5116C50.2215 18.6942 50.1532 18.8856 50.0698 18.9367C49.9568 19.0061 49.9378 18.4117 49.9952 16.6096C50.0563 14.6927 50.1404 13.902 50.3995 12.8081C50.7468 11.3419 51.5353 9.03212 51.8527 8.55093C52.0635 8.23128 52.9865 7.90623 54.3266 7.67945C56.1685 7.36782 57.0584 6.94109 58.0113 5.91268C58.5408 5.34099 59.0839 4.39913 59.0908 4.04041C59.0941 3.86796 58.4076 3.6 57.9623 3.6C57.3865 3.6 55.9733 4.1246 55.2258 4.61592C54.81 4.88913 54.0438 5.49227 53.523 5.95609C52.6622 6.72286 52.5972 6.75864 52.807 6.35072C52.934 6.10395 53.5103 5.41124 54.0877 4.8114C55.5173 3.32626 56.1716 1.91624 55.8352 1.04568C55.5273 0.248782 53.4342 1.93781 52.8654 3.44189C52.7094 3.85441 52.5275 4.54712 52.4612 4.98122C52.2424 6.41255 52.1916 6.65315 52.1223 6.58435C52.0846 6.54699 52.0029 5.75417 51.9408 4.82271C51.8062 2.80745 51.5175 1.90505 50.7851 1.20945C50.2916 0.740757 49.8248 0.442941 49.5838 0.442941C49.5149 0.442941 49.3918 0.705897 49.3104 1.02739ZM2.24469 30.4313C0.819713 30.9845 0.166749 31.8439 0.166749 33.1664C0.166749 34.0963 0.640681 35.1463 1.27895 35.6297C1.51134 35.806 2.41392 36.2818 3.28458 36.6872C4.15524 37.0927 5.06245 37.6108 5.30054 37.8386C6.31647 38.8103 6.10923 40.5521 4.90394 41.1713C4.28078 41.4913 3.16779 41.4267 2.33513 41.0221C1.53068 40.631 0.967626 39.9875 0.488398 38.9111C0.303804 38.4966 0.110868 38.2105 0.0596217 38.2755C0.00824271 38.3403 -0.0142694 38.9717 0.00943377 39.6784L0.0526032 40.9633L0.678156 41.2782C2.79357 42.3431 5.38172 42.2169 6.70512 40.9843C7.85691 39.9117 7.8822 37.9498 6.76061 36.6839C6.12764 35.9696 5.72482 35.7203 4.00442 34.9784C3.25426 34.6551 2.46993 34.228 2.26137 34.0296C1.47029 33.2766 1.44526 32.0326 2.20602 31.2769C3.29981 30.1904 5.02153 30.691 6.10142 32.4094C6.62898 33.2489 6.99102 33.4498 6.86985 32.8357C6.83052 32.6367 6.75875 32.1283 6.71016 31.7057C6.62355 30.9524 6.61084 30.9329 6.05097 30.6944C4.77232 30.1501 3.24207 30.0442 2.24469 30.4313ZM9.56857 30.3756C9.56857 30.4152 9.73251 30.5876 9.93273 30.7586L10.2969 31.0697L10.3391 35.6705C10.3834 40.4958 10.3193 41.2264 9.82891 41.4871C9.18032 41.832 9.65743 41.8827 13.2307 41.8486L16.8926 41.8136L17.197 40.6955C17.3644 40.0805 17.5042 39.4966 17.5076 39.3979C17.511 39.2993 17.2308 39.518 16.8848 39.8841C16.0076 40.8121 15.3821 41.0543 13.5735 41.1659L12.0846 41.2577V38.7403V36.223H13.2806C14.7089 36.223 15.2813 36.4217 15.6181 37.0347L15.8585 37.4726L15.8967 36.1731C15.9356 34.8452 15.8719 34.5358 15.6433 34.9415C15.3929 35.3862 14.7106 35.6052 13.3757 35.6697L12.0846 35.7319V33.2782V30.8244L13.3757 30.905C14.9267 31.002 15.9063 31.391 16.3627 32.091C16.5224 32.3361 16.731 32.5372 16.8264 32.5382C16.9217 32.5389 16.9731 32.4954 16.9405 32.4411C16.908 32.3867 16.7792 31.8837 16.6545 31.3229L16.4278 30.3035H12.9983C11.1119 30.3035 9.56857 30.336 9.56857 30.3756ZM19.6325 30.3721C19.6325 30.4263 19.7756 30.6023 19.9506 30.7634C20.3899 31.1679 20.4585 32.1023 20.4046 36.9465C20.3689 40.1697 20.3247 40.947 20.1634 41.1888C20.0549 41.3515 19.891 41.4847 19.7992 41.4847C19.7076 41.4847 19.6326 41.5588 19.6328 41.6492C19.6329 41.7707 20.0639 41.8193 21.288 41.8352C22.4809 41.8507 22.943 41.8135 22.943 41.7019C22.943 41.6168 22.8108 41.4887 22.6494 41.4173C22.2359 41.2344 22.1767 40.8952 22.1617 38.6236L22.1485 36.6176H22.7901C23.2331 36.6176 23.4964 36.6889 23.6409 36.8478C23.7559 36.9743 24.2771 37.8475 24.799 38.7881C25.8558 40.693 26.1876 41.1027 26.9812 41.4845C27.5369 41.7516 29.1667 41.9989 29.1667 41.8161C29.1667 41.7606 28.902 41.4838 28.5787 41.201C28.2291 40.8953 27.598 40.043 27.0227 39.0996C26.4904 38.2266 25.863 37.2889 25.6283 37.0157L25.2018 36.5189L25.8078 36.289C27.0818 35.8057 27.8343 34.7687 27.8396 33.4892C27.8452 32.168 27.1456 31.1723 25.863 30.6763C25.2174 30.4265 24.7936 30.3846 22.3802 30.3328C20.8689 30.3002 19.6325 30.3179 19.6325 30.3721ZM35.0557 30.527C35.3817 31.3315 35.3067 31.6097 33.6075 35.885C31.8623 40.2757 31.3913 41.2877 30.9945 41.4987C30.496 41.7637 30.7854 41.8794 31.9476 41.8794C32.603 41.8794 33.1393 41.8498 33.1393 41.8136C33.1393 41.7774 33.0202 41.6294 32.8745 41.4847C32.5129 41.1255 32.5495 40.6994 33.0615 39.3143L33.499 38.1304H35.6696H37.8403L38.2673 39.38C38.7379 40.7576 38.8124 41.4505 38.5024 41.5687C37.9589 41.7758 38.4662 41.8794 40.0252 41.8794C40.972 41.8794 41.7467 41.8435 41.7467 41.7997C41.7467 41.7558 41.5957 41.6019 41.4112 41.4578C40.9272 41.0796 40.6395 40.4543 38.5069 35.1443L36.589 30.3693L35.7744 30.3297C35.0345 30.2937 34.9685 30.3118 35.0557 30.527ZM40.3725 30.4088C40.3365 30.4669 40.5052 30.6714 40.7475 30.8635C41.2028 31.2243 41.3045 31.4455 44.737 39.5495C45.6128 41.6171 45.8249 42.0146 46.0356 41.983C46.2303 41.9537 46.5526 41.2885 47.4565 39.0512C50.5939 31.2841 50.518 31.4559 51.0433 30.9341C51.3197 30.6596 51.5457 30.4054 51.5457 30.3693C51.5457 30.3331 51.0094 30.3035 50.354 30.3035C49.6985 30.3035 49.1622 30.3432 49.1622 30.3917C49.1622 30.4403 49.2633 30.591 49.3869 30.7267C49.7227 31.0954 49.5172 31.8486 48.1026 35.4337C47.4317 37.1339 46.8195 38.7173 46.7422 38.9525C46.609 39.3582 46.3814 39.5399 46.3814 39.2406C46.3814 39.1639 45.7814 37.6451 45.048 35.8656C44.3148 34.086 43.6167 32.2585 43.4967 31.8043C43.2924 31.0301 43.2929 30.963 43.5059 30.7294C43.6307 30.5922 43.733 30.4403 43.733 30.3917C43.733 30.2655 40.4513 30.2822 40.3725 30.4088ZM53.0024 30.3569C53.0024 30.3887 53.1811 30.5924 53.3996 30.8094L53.7969 31.204V36.0943V40.9846L53.4043 41.3489C53.1883 41.5493 53.0492 41.7506 53.0953 41.7962C53.1413 41.842 54.7981 41.8794 56.7771 41.8794H60.3752L60.6513 40.8599C60.8032 40.2991 60.9681 39.7368 61.0179 39.6102C61.1789 39.2006 60.837 39.3624 60.2852 39.9571C59.5227 40.7787 58.7392 41.0739 57.0478 41.1767L55.6508 41.2616V38.7423V36.223L56.7432 36.2303C58.1045 36.2397 58.6789 36.4269 59.0251 36.9742C59.1721 37.2067 59.3369 37.399 59.3916 37.4017C59.4463 37.4046 59.4909 36.8149 59.4909 36.0914C59.4909 34.6809 59.4128 34.5464 58.9218 35.1117C58.5688 35.5182 57.8887 35.6894 56.6108 35.6936L55.6508 35.6968V33.2757V30.8545L56.7432 30.9149C58.4243 31.0079 58.9303 31.181 59.6702 31.9161C60.0242 32.2677 60.338 32.5313 60.3676 32.502C60.3971 32.4726 60.3139 31.9808 60.1827 31.409L59.9442 30.3693L56.4732 30.3341C54.5643 30.3149 53.0024 30.3252 53.0024 30.3569ZM63.1987 30.3971C63.1987 30.4487 63.3625 30.6208 63.5629 30.7794L63.927 31.0678V36.0914V41.1151L63.5629 41.4034C63.3625 41.5621 63.1987 41.7341 63.1987 41.7857C63.1987 41.8371 64.83 41.8794 66.8238 41.8794H70.4491L70.7139 40.8599C70.8596 40.2991 71.0223 39.7368 71.0756 39.6102C71.2476 39.2006 70.9485 39.3642 70.1889 40.095C69.6441 40.619 69.2596 40.8649 68.748 41.0158C67.9803 41.2423 66.2926 41.2894 65.9795 41.093C65.8111 40.9874 65.7745 40.322 65.7388 36.7211C65.6899 31.8039 65.7371 31.1815 66.1898 30.7647C66.3655 30.603 66.5092 30.4331 66.5092 30.387C66.5092 30.3411 65.7643 30.3035 64.854 30.3035C63.9436 30.3035 63.1987 30.3457 63.1987 30.3971ZM72.8654 30.3823C72.8654 30.4256 73.0462 30.6288 73.2673 30.834L73.6692 31.2069L73.6314 36.16L73.5937 41.1131L73.2295 41.4241C73.0292 41.5952 72.8654 41.7686 72.8654 41.8094C72.8654 41.8502 74.5176 41.8678 76.5368 41.8486L80.2083 41.8136L80.5023 40.6955C80.664 40.0805 80.7994 39.4925 80.8034 39.389C80.8074 39.2853 80.4978 39.5337 80.1154 39.9407C79.1604 40.9575 78.5385 41.2151 77.03 41.2188C76.2708 41.2206 75.7733 41.1638 75.6727 41.0638C75.5548 40.9467 75.5138 39.6388 75.5138 35.993V31.0803L75.8448 30.7755C76.0269 30.6077 76.1759 30.4331 76.1759 30.387C76.1759 30.3411 75.431 30.3035 74.5206 30.3035C73.6102 30.3035 72.8654 30.3389 72.8654 30.3823ZM82.532 30.3591C82.532 30.3898 82.7108 30.5924 82.9293 30.8094L83.3266 31.204V36.0943V40.9846L82.9339 41.3489C82.7179 41.5493 82.5789 41.7506 82.625 41.7962C82.6709 41.842 84.3351 41.8794 86.323 41.8794H89.9374L90.0842 41.3203C90.1651 41.0129 90.3163 40.4693 90.4204 40.1125C90.5245 39.7557 90.6097 39.4154 90.6097 39.3561C90.6097 39.1305 90.4008 39.2648 90.1462 39.6542C89.8275 40.1415 88.9944 40.7364 88.3585 40.9305C88.1036 41.0084 87.2843 41.1005 86.5377 41.1351L85.1804 41.1981V38.6956V36.1931L86.5377 36.2469C88.0149 36.3053 88.3111 36.4174 88.7073 37.0672L88.9544 37.4726L88.9925 36.1731C89.0135 35.4584 88.9945 34.8377 88.9503 34.7939C88.9062 34.7501 88.7698 34.8395 88.6475 34.9928C88.2706 35.4642 87.8157 35.6059 86.4729 35.6701L85.1804 35.7319V33.3052V30.8783L86.3391 30.9304C88.0359 31.0067 88.4266 31.1412 89.1779 31.9074C89.5356 32.2722 89.8517 32.5472 89.8804 32.5187C89.933 32.4666 89.7838 31.714 89.5392 30.7968L89.4077 30.3035H85.9698C84.0791 30.3035 82.532 30.3285 82.532 30.3591ZM96.2368 30.5337C96.6156 31.462 96.6638 31.2706 94.9206 35.762C93.0875 40.485 92.8691 40.9703 92.3916 41.3827C92.2127 41.5372 92.0663 41.7123 92.0663 41.7715C92.0663 41.8308 92.6026 41.8794 93.2581 41.8794C93.9135 41.8794 94.4498 41.8333 94.4498 41.777C94.4498 41.7207 94.3307 41.5734 94.185 41.4495C93.8223 41.141 93.859 40.7055 94.3647 39.3143L94.7952 38.1304L96.9225 38.0943L99.0497 38.0583L99.4609 39.2124C100.043 40.8464 100.075 41.0397 99.8274 41.4153C99.7102 41.5931 99.6142 41.7702 99.6142 41.809C99.6142 41.9409 102.908 41.8819 102.991 41.7484C103.035 41.6764 102.916 41.5467 102.725 41.4604C102.262 41.2506 101.777 40.2111 99.5969 34.7447L97.8266 30.3068L96.9848 30.3051C96.2353 30.3036 96.1533 30.3287 96.2368 30.5337ZM24.9739 31.3425C25.6679 31.7686 25.9887 32.4594 25.9887 33.5276C25.9887 35.2589 25.1624 35.9599 23.1219 35.9599H22.1485V33.4445V30.929L23.3146 30.9844C24.2354 31.0282 24.5845 31.1035 24.9739 31.3425ZM36.8961 35.8016C37.2332 36.6913 37.5092 37.4312 37.5092 37.4459C37.5092 37.4607 36.6743 37.4726 35.6539 37.4726C34.4718 37.4726 33.8167 37.4249 33.8487 37.3411C34.1321 36.5988 35.5514 32.8225 35.6026 32.6748C35.6397 32.5675 35.8064 32.8608 35.9763 33.3325C36.145 33.8008 36.5588 34.912 36.8961 35.8016ZM98.7359 37.2753C98.8108 37.4454 98.5666 37.4726 96.9642 37.4726C95.7239 37.4726 95.1176 37.4263 95.1419 37.3336C95.1619 37.2572 95.5653 36.1571 96.0386 34.8891L96.8989 32.5835L97.774 34.8307C98.2553 36.0667 98.6881 37.1668 98.7359 37.2753Z" fill="white"/>
</svg>
