<svg width="124" height="24" viewBox="0 0 124 24" fill="none" xmlns="http://www.w3.org/2000/svg">
<path d="M5.4425 19L6.905 12.7145L2 8.48684L8.48 7.92763L11 2L13.52 7.92763L20 8.48684L15.095 12.7145L16.5575 19L11 15.6671L5.4425 19Z" fill="#EEBB58"/>
<path d="M30.4425 19L31.905 12.7145L27 8.48684L33.48 7.92763L36 2L38.52 7.92763L45 8.48684L40.095 12.7145L41.5575 19L36 15.6671L30.4425 19Z" fill="#EEBB58"/>
<path d="M55.4425 19L56.905 12.7145L52 8.48684L58.48 7.92763L61 2L63.52 7.92763L70 8.48684L65.095 12.7145L66.5575 19L61 15.6671L55.4425 19Z" fill="#EEBB58"/>
<path d="M80.4425 19L81.905 12.7145L77 8.48684L83.48 7.92763L86 2L88.52 7.92763L95 8.48684L90.095 12.7145L91.5575 19L86 15.6671L80.4425 19Z" fill="#EEBB58"/>
<path d="M105.442 19L106.905 12.7145L102 8.48684L108.48 7.92763L111 2L113.52 7.92763L120 8.48684L115.095 12.7145L116.557 19L111 15.6671L105.442 19Z" fill="#EEBB58"/>
</svg>
