<svg width="453" height="633" viewBox="0 0 453 633" fill="none" xmlns="http://www.w3.org/2000/svg">
<path d="M17.3184 0.5H24.1143C45.5902 0.500206 62.9998 17.9098 63 39.3857C63 63.2922 83.8858 81.8294 107.623 78.9902L223.996 65.0713C226.323 64.7929 228.677 64.7929 231.004 65.0713L347.377 78.9902C371.114 81.8294 392 63.2922 392 39.3857C392 17.9098 409.41 0.500214 430.886 0.5H436.228C445.215 0.500148 452.5 7.7855 452.5 16.7725V603C452.5 619.292 439.292 632.5 423 632.5H30C13.7076 632.5 0.5 619.292 0.5 603V17.3184C0.5 8.02993 8.02993 0.5 17.3184 0.5Z" stroke="black"/>
</svg>
