<svg width="384" height="523" viewBox="0 0 384 523" fill="none" xmlns="http://www.w3.org/2000/svg">
<path d="M14.6807 0.5H21.2344C38.9591 0.500109 53.3281 14.869 53.3281 32.5938C53.3282 52.3893 70.5915 67.7571 90.2539 65.4648L189.432 53.9023C191.701 53.6378 193.994 53.6378 196.264 53.9023L295.441 65.4648C315.104 67.7571 332.367 52.3893 332.367 32.5938C332.367 14.869 346.736 0.500132 364.461 0.5H369.782C377.358 0.500099 383.5 6.6417 383.5 14.2178V493C383.5 509.292 370.292 522.5 354 522.5H30C13.7076 522.5 0.5 509.292 0.5 493V14.6807L0.504883 14.3145C0.698927 6.65196 6.97141 0.5 14.6807 0.5Z" stroke="black"/>
</svg>
