<svg width="384" height="581" viewBox="0 0 384 581" fill="none" xmlns="http://www.w3.org/2000/svg">
<path d="M14.6807 0.5H17.8652C37.4506 0.5 53.3281 16.3775 53.3281 35.9629C53.3284 57.9597 72.6589 74.9482 94.4736 72.123L189.059 59.873C191.574 59.5473 194.121 59.5473 196.637 59.873L291.222 72.123C313.036 74.9482 332.367 57.9597 332.367 35.9629C332.367 16.3775 348.245 0.5 367.83 0.5H369.782C377.358 0.500099 383.5 6.6417 383.5 14.2178V551C383.5 567.292 370.292 580.5 354 580.5H30C13.7076 580.5 0.5 567.292 0.5 551V14.6807C0.5 6.8491 6.8491 0.5 14.6807 0.5Z" stroke="black"/>
</svg>
