<svg width="384" height="498" viewBox="0 0 384 498" fill="none" xmlns="http://www.w3.org/2000/svg">
<path d="M14.6807 0.5H22.7012C39.6157 0.5 53.3281 14.2124 53.3281 31.127C53.3284 49.9751 69.7102 64.6389 88.4434 62.5596L189.593 51.332C191.756 51.0919 193.939 51.0919 196.103 51.332L297.252 62.5596C315.985 64.639 332.367 49.9752 332.367 31.127C332.367 14.2124 346.08 0.5 362.994 0.5H369.782C377.358 0.500099 383.5 6.6417 383.5 14.2178V468C383.5 484.292 370.292 497.5 354 497.5H30C13.7076 497.5 0.5 484.292 0.5 468V14.6807C0.5 6.8491 6.8491 0.5 14.6807 0.5Z" stroke="black"/>
</svg>
