<svg width="145" height="157" viewBox="0 0 145 157" fill="none" xmlns="http://www.w3.org/2000/svg">
<path d="M55.2297 0.306335C55.1373 0.459518 54.4904 0.612686 53.8128 0.612686C52.3959 0.612686 44.6032 2.08313 44.1411 2.45073C43.9871 2.57327 43.0631 2.91025 42.1391 3.21658C41.215 3.52293 39.2745 4.28879 37.8269 4.96274C36.3792 5.63669 34.9315 6.31064 34.5927 6.43317C34.0383 6.64761 32.067 7.87297 29.5721 9.55786C24.4282 13.0501 20.3932 18.1354 19.1612 22.7612C18.6992 24.4767 18.6068 28.2753 19.038 29.2556C19.2536 29.8377 19.3152 29.807 19.6232 29.0105C19.808 28.5204 19.962 27.9996 19.962 27.8464C19.962 27.295 22.7957 21.7502 23.073 21.7502C23.227 21.7502 23.535 21.3826 23.7814 20.8925C25.0135 18.503 30.4653 14.2142 34.2539 12.6825C35.3011 12.2537 36.564 11.7329 37.0568 11.4878C38.2273 10.967 40.6606 10.2931 43.8331 9.58849C45.7736 9.15961 47.6833 9.03708 52.7655 9.03708C58.895 9.03708 59.4187 9.09834 62.776 9.92546C66.965 10.967 71.4004 13.0808 74.7886 15.5928C76.7599 17.0632 83.4438 23.4045 85.8463 26.1309C86.5855 26.9274 86.4623 26.8968 83.3822 25.5795C78.5771 23.4964 73.6181 20.9231 71.5544 19.4527C64.1621 14.1836 57.6322 11.9473 49.4698 11.9473C46.2972 11.9473 40.0138 12.6519 37.5188 13.3259C32.4058 14.6431 31.2661 15.0107 30.3729 15.5928C29.8185 15.9298 28.8944 16.4505 28.34 16.7569C27.4468 17.2164 27.3236 17.4002 27.4776 18.166C27.9704 20.5862 32.4058 24.2622 37.5188 26.4679C38.6277 26.9274 39.9522 27.5095 40.4758 27.7545C41.4306 28.1834 46.5745 29.47 49.6854 30.0521C50.5478 30.2053 54.3364 30.5422 58.1558 30.7873C70.1376 31.5838 76.0822 32.5947 83.0742 35.0761C85.4767 35.9339 87.5712 36.9141 89.1112 37.9557C91.2057 39.3649 94.0395 41.9381 93.7623 42.1832C93.7007 42.2751 92.6226 41.8462 91.3597 41.2642C86.5239 38.936 79.2548 37.2818 66.3182 35.5356C62.776 35.0455 59.5111 34.494 59.0798 34.3409C58.3714 34.0345 51.6875 32.8092 48.2993 32.319C46.9133 32.1352 45.1268 31.7676 40.291 30.6648C36.1636 29.7151 32.7138 27.969 30.3421 25.5795C29.2332 24.4767 27.9088 22.7918 27.416 21.8115C26.9231 20.8618 26.3687 20.0347 26.1839 19.9735C25.7835 19.8509 23.689 22.8224 23.4734 23.864C23.1038 25.7021 24.305 29.5007 25.9375 31.6451C28.0936 34.4634 29.3257 35.505 33.3914 37.8944C35.7324 39.273 41.061 41.6318 43.0631 42.1832C50.209 44.1438 54.6444 44.6952 63.392 44.7259C71.924 44.7565 79.532 46.135 84.491 48.6164C87.7252 50.2094 89.4501 51.5266 91.7602 54.0999C94.0087 56.6425 95.2715 58.9401 96.3804 62.6162C97.7972 67.2726 97.8588 67.5177 98.7829 72.4498C99.4605 75.8808 99.9225 77.5044 100.662 78.9136C101.832 81.0886 104.543 83.9376 107.592 86.1432C109.533 87.5218 109.471 87.8587 107.438 86.8478C105.99 86.082 102.325 82.559 101.124 80.721C100.477 79.7101 99.4605 77.6882 98.9061 76.1871C98.3517 74.7167 97.7664 73.2769 97.6124 72.9705C97.4584 72.6948 96.7808 70.7955 96.1032 68.7737C93.4234 60.6556 92.4378 58.8176 88.7416 54.9883C85.2611 51.3735 80.3944 49.2291 73.8337 48.4326C72.2321 48.2488 70.3224 47.9424 69.5523 47.7893C68.7823 47.6055 65.1785 47.3604 61.544 47.1766C51.9339 46.7477 50.671 46.5639 43.8331 44.542C42.3239 44.0825 36.2868 41.3867 35.9788 41.0191C35.8864 40.9272 35.1779 40.4677 34.4079 40.0388C33.6379 39.5793 32.683 38.8747 32.2826 38.4459C31.8822 38.017 31.451 37.68 31.2969 37.68C30.7733 37.68 25.0443 31.5838 23.6582 29.562C21.3481 26.2228 21.5329 26.376 21.5021 27.295C21.5021 28.6429 22.4569 31.3694 23.3194 32.4722C23.7814 33.0542 24.3358 33.8814 24.5514 34.2796C25.1059 35.3212 29.4797 39.61 31.0505 40.6515C36.718 44.4195 39.9213 45.8593 45.8352 47.2991C50.9791 48.5551 51.3179 48.5858 66.9342 49.658C74.4498 50.1787 78.6079 51.0059 82.6737 52.8439C84.6758 53.7629 88.2796 56.3362 88.6184 57.0714C88.68 57.2246 89.1728 57.8066 89.7581 58.358C91.3597 59.9817 90.9901 60.0429 89.3577 58.4806C86.0927 55.3559 82.4889 53.6098 76.0206 52.078C74.573 51.7104 68.2279 51.4654 57.8478 51.3122C46.3588 51.159 45.4964 50.9446 37.5188 46.1963C35.7324 45.1241 33.8843 44.0825 33.4222 43.8375C32.9602 43.5924 32.5906 43.286 32.5906 43.1329C32.5906 43.0103 32.067 42.5508 31.451 42.1526C27.6316 39.7019 21.2865 31.4613 21.2249 28.8574C21.1941 27.7239 20.578 28.0915 20.578 29.2556C20.578 29.8377 20.4548 30.3278 20.27 30.3278C20.116 30.3278 19.962 31.0018 19.962 31.8595C19.962 32.6866 20.116 33.3912 20.27 33.3912C20.4548 33.3912 20.578 33.6669 20.578 33.9733C20.578 35.168 22.3645 38.8441 23.997 41.0498C26.7999 44.7871 32.3442 49.566 35.948 51.3428C36.9028 51.8023 38.6585 52.9052 39.8597 53.7936C42.6319 55.8154 45.4348 57.5003 48.0221 58.7257C52.2419 60.6862 55.3221 64.6687 57.509 71.0099C59.1106 75.6357 59.2955 77.7801 58.6486 84.0295C57.9402 90.5545 58.0942 94.9352 59.049 97.4166C59.7575 99.2853 62.0368 102.073 63.4228 102.808C64.2853 103.237 64.3161 103.329 64.3161 105.627C64.3161 108.721 64.8397 110.651 66.4106 113.285C69.4907 118.462 76.1746 121.679 82.8277 121.219C87.602 120.913 90.7745 118.432 92.0374 113.959C92.6842 111.753 92.715 111.294 92.3762 109.885C92.1914 108.996 91.6678 107.802 91.2365 107.189C89.296 104.401 84.1214 103.788 83.567 106.3C83.259 107.618 83.5978 107.802 84.5218 106.821C85.4151 105.841 85.8771 106.025 86.4931 107.526C87.4788 109.854 85.6307 113.254 82.6121 114.756C81.3185 115.368 80.5484 115.521 78.7004 115.552C76.2362 115.552 76.0206 115.491 74.6038 114.265C72.3245 112.335 70.7844 108.782 70.7844 105.535V103.911L72.4169 103.39C74.0493 102.839 77.0987 101.123 76.8215 100.878C76.7291 100.786 75.5586 101.093 74.2033 101.522C71.2464 102.471 70.692 102.532 70.9076 101.767C71 101.491 71.2772 100.112 71.5236 98.7032C72.078 95.7317 72.6325 93.7405 73.9261 89.9112C75.8974 84.0295 76.6059 80.8129 76.6367 77.7801C76.6367 75.2375 75.7126 71.0712 74.6962 69.08C73.9877 67.7015 71.924 64.7606 71 63.9028C70.6612 63.5659 70.5072 63.2595 70.692 63.1982C71.0924 63.0451 74.881 65.0976 75.3738 65.6796C75.5894 65.9247 76.1438 68.0691 76.6675 70.4892C78.2999 78.2396 80.1788 84.6115 81.5957 87.3073C81.9345 87.8894 82.1809 88.4714 82.1809 88.5939C82.1809 88.9616 86.2467 96.0074 87.0783 97.0796C90.4049 101.368 96.3496 105.657 104.204 109.456C113.198 113.775 114.399 114.449 116.062 116.103C118.065 118.064 119.143 120.699 119.143 123.456C119.143 125.6 117.757 129.613 116.34 131.574C115.754 132.37 115.077 133.32 114.83 133.687C114.245 134.545 112.613 136.138 110.826 137.609C110.056 138.221 108.793 139.324 107.993 140.059C107.222 140.795 105.775 142.051 104.789 142.908C103.804 143.735 102.109 145.236 101.001 146.247C99.8609 147.228 98.5057 148.3 97.982 148.637C97.4276 148.974 96.9656 149.311 96.9656 149.372C96.9656 149.433 97.1812 150.138 97.4584 150.934C98.2901 153.355 99.5529 154.825 101.832 155.958C103.804 156.969 103.988 157 107.407 157C110.611 157 111.227 156.908 113.229 156.142C114.43 155.652 115.446 155.131 115.446 154.978C115.446 154.825 114.83 154.457 114.122 154.12C113.383 153.783 112.243 152.926 111.596 152.221C110.518 151.026 110.457 150.843 110.611 149.525C110.949 146.799 112.305 144.471 116.555 139.539C118.219 137.578 119.974 135.219 121.484 132.83L123.054 130.348L125.488 130.164C126.812 130.073 128.26 129.858 128.691 129.736C130.293 129.245 133.804 127.499 134.205 127.009C134.451 126.703 135.036 126.274 135.529 126.029C135.991 125.784 136.391 125.416 136.391 125.171C136.391 124.957 136.761 124.467 137.192 124.038C137.623 123.639 138.24 122.812 138.548 122.23C139.348 120.699 140.704 114.357 140.704 112.213C140.704 111.233 140.858 110.252 141.012 110.099C141.412 109.701 142.706 107.465 143.322 106.117C145.878 100.572 145.478 92.6683 142.367 87.0929C139.749 82.3752 137.654 80.6903 129.554 76.6466C123.794 73.7977 123.116 73.2462 125.334 73.2156C126.997 73.2156 131.956 71.1938 134.975 69.3251C135.868 68.743 136.053 68.4673 135.806 68.2222C135.529 67.9465 135.375 67.9465 135.221 68.1916C135.098 68.3754 134.174 68.8349 133.157 69.2025C132.141 69.5701 131.001 70.0909 130.632 70.336C129.492 71.0712 126.535 71.6839 124.194 71.6839H121.976L121.484 70.4585C120.56 68.161 120.806 66.231 122.623 61.1151C124.81 54.9883 125.118 52.0474 124.071 47.3298C123.332 43.9294 122.531 41.8462 121.33 40.0388C120.806 39.273 120.375 38.5071 120.375 38.354C120.375 38.1702 120.036 37.7719 119.605 37.4349C119.173 37.098 118.835 36.6691 118.835 36.5159C118.835 36.1483 116.247 33.9426 113.999 32.3803C111.812 30.8486 108.485 29.225 104.666 27.8158C102.879 27.1419 100.877 26.2841 100.2 25.8858C98.1669 24.6911 95.5179 21.9953 93.4234 18.8706C90.2509 14.2142 88.8648 12.4681 86.3391 9.9561C83.3822 7.04585 79.9632 4.80956 75.497 2.91025C72.9405 1.83804 68.1971 0.612686 66.4106 0.612686C65.9486 0.612686 65.4865 0.459518 65.3941 0.306335C65.2709 0.122543 63.238 0 60.3119 0C57.3858 0 55.3529 0.122543 55.2297 0.306335ZM96.442 33.2687C98.5365 34.3409 99.4605 35.1067 103.157 38.7522C107.192 42.7959 109.81 46.6864 111.319 51.0059C111.75 52.2312 111.873 53.4566 111.812 56.9795C111.75 64.8219 111.319 68.161 110.611 66.231C110.487 65.9553 110.179 65.4039 109.871 65.0057C108.609 63.382 107.315 59.7979 107.007 57.1327C106.206 49.903 105.005 46.0125 102.294 41.9994C101.309 40.5596 100.385 39.2117 100.2 39.0585C100.015 38.8747 99.4913 38.262 99.0601 37.68C98.5981 37.098 97.366 35.6888 96.2572 34.5247C95.1483 33.3912 94.3783 32.4722 94.5631 32.4722C94.7171 32.4722 95.5487 32.8398 96.442 33.2687ZM59.4495 64.1173C61.6672 65.2814 64.6857 67.4564 66.2566 69.08C66.811 69.6314 67.735 71.0406 68.3203 72.2047L69.3983 74.2878L69.3675 78.8829C69.3675 82.1301 69.2135 84.0295 68.8747 85.3161C68.5975 86.327 67.735 89.4823 66.9342 92.362C66.1334 95.2109 65.3325 98.3356 65.1477 99.2546C64.9629 100.174 64.7781 101.001 64.7473 101.062C64.4085 101.46 62.6836 100.204 62.0368 99.1321C60.1579 95.9461 59.203 87.8281 60.3427 84.7034C60.6507 83.815 60.7739 81.9463 60.7739 77.6576C60.7739 71.8371 60.7739 71.8371 59.7575 69.1106C59.203 67.5789 58.5562 66.0779 58.3098 65.7409C58.0634 65.3733 57.4474 64.5155 56.9545 63.8109C55.8765 62.3099 55.9997 62.3099 59.4495 64.1173ZM105.498 67.9159C106.576 68.9881 109.132 70.673 110.888 71.5001C111.689 71.8983 112.028 72.266 112.182 72.9705C112.551 74.8086 114.338 77.872 116.278 79.9245C119.728 83.6619 122.408 85.1323 129.615 87.338C133.712 88.5939 136.823 90.2176 138.086 91.7493C141.042 95.3028 142.059 100.235 140.704 104.34C139.718 107.434 139.626 107.556 139.04 106.178C138.363 104.585 135.899 101.123 134.667 100.112C133.866 99.4384 133.619 98.9177 133.342 97.386C132.88 94.6901 131.586 92.362 129.307 90.0644C126.165 86.9397 122.531 84.8566 116.494 82.7122C115.631 82.4059 114.368 81.8238 113.722 81.3949C112.336 80.5065 109.594 77.9639 109.594 77.535C109.594 77.3819 109.255 76.8611 108.855 76.3709C108.455 75.9114 107.685 74.6248 107.099 73.5219C106.545 72.4191 105.929 71.3163 105.713 71.0712C105.344 70.6117 103.434 65.9553 103.465 65.5877C103.465 65.4958 103.711 65.7409 103.988 66.1698C104.266 66.5986 104.943 67.3645 105.498 67.9159ZM80.3328 69.1413C83.3514 71.8371 85.9387 75.8808 88.0332 81.1805C90.2201 86.7253 92.3762 90.5545 95.1791 93.8018C95.98 94.7514 96.6576 95.6092 96.6576 95.7011C96.6576 96.2525 89.6349 90.3095 88.1564 88.5327C87.6636 87.9506 87.0167 87.2767 86.7395 87.0622C86.4315 86.8478 86.1851 86.5108 86.1851 86.3577C86.1851 86.1739 85.7847 85.5305 85.2611 84.9179C83.9982 83.3249 81.4109 78.2396 80.6408 75.7582C80.0248 73.8283 78.7928 68.0078 78.9776 68.0078C79.0084 68.0078 79.6244 68.5286 80.3328 69.1413ZM98.6289 78.3621C101.124 84.152 104.604 87.92 108.978 89.5436C109.748 89.8193 112.736 90.6158 115.6 91.3204C118.496 91.9943 121.391 92.8215 122.069 93.1278C122.746 93.4341 123.917 93.9549 124.687 94.2919C125.457 94.6289 126.566 95.3028 127.151 95.8236L128.229 96.7733L126.843 96.4363C125.118 96.0687 121.453 95.4254 117.603 94.8127C110.641 93.7405 107.438 92.2088 103.126 87.8894C101.493 86.2964 99.0909 81.7625 98.2285 78.7298C97.9204 77.6269 97.5508 76.4628 97.4276 76.1259C97.2736 75.7889 97.2736 75.5744 97.366 75.6663C97.4584 75.7582 98.0437 76.9836 98.6289 78.3621ZM107.469 102.196C108.301 102.594 110.149 103.084 118.065 104.922C125.365 106.637 128.907 108.843 130.878 112.887L131.771 114.725L130.786 115.552C130.231 116.012 129.554 116.41 129.276 116.41C129.03 116.41 128.537 116.624 128.198 116.869C127.428 117.451 128.013 117.451 130.139 116.9C131.71 116.471 131.71 116.502 131.894 117.206C132.418 119.228 130.755 123.486 128.66 125.569C127.367 126.856 124.594 128.663 123.886 128.663C123.64 128.663 123.701 128.143 124.009 127.04C124.872 124.16 124.841 121.097 123.917 117.727C123.024 114.48 122.716 113.806 121.268 111.661C119.943 109.701 118.034 108.384 111.288 104.769C108.085 103.053 105.374 101.583 105.282 101.491C105.066 101.246 106.545 101.736 107.469 102.196Z" fill="#3A3A3A"/>
<path d="M17.621 30.5727C17.005 30.971 14.6025 34.739 13.124 37.6492C10.9371 41.8461 10.2903 44.6338 10.5059 49.0145C10.6907 52.9356 10.9063 53.7628 13.1856 58.3885C15.8345 63.7801 16.0193 64.3315 16.0193 66.5372C16.0193 68.8348 15.2493 70.5503 13.6168 71.9901C12.6928 72.7866 9.48943 74.4408 8.8734 74.4408C8.65779 74.4408 8.13417 74.6246 7.70295 74.8697C7.24092 75.1148 6.03967 75.6049 5.02322 75.9419C2.62071 76.7996 0.71102 78.5152 0.218197 80.2919C-0.182221 81.793 0.00258719 87.2153 0.49541 88.073C0.71102 88.4713 0.803425 88.073 0.92663 86.5719C1.11144 84.5194 1.91228 82.5282 3.11353 81.2416C4.12998 80.1388 6.6865 78.8215 8.8426 78.2701C11.3375 77.6268 14.2945 76.3095 15.4957 75.2679C16.0193 74.8391 16.851 73.7669 17.3438 72.8478C18.2062 71.3161 18.2678 71.0404 18.2678 67.7013C18.2678 64.6685 18.1754 63.9639 17.5902 62.7386C17.1898 61.9421 16.8818 61.1762 16.8818 61.0843C16.8818 60.6554 18.0522 62.4016 18.8531 64.0252C19.3151 64.9442 19.9003 65.9245 20.1159 66.1696C20.8244 66.9661 22.1488 70.2746 22.3336 71.6837C22.4568 72.9091 22.3644 73.2155 21.5328 74.257C20.5163 75.513 18.8839 76.4014 17.0358 76.769C16.4506 76.8609 15.8653 77.0754 15.7729 77.2285C15.6805 77.3817 15.2801 77.5042 14.8797 77.5042C14.4793 77.5042 13.8324 77.6268 13.432 77.7799C13.0316 77.9331 11.9535 78.3007 11.0295 78.5764C9.39703 79.0666 5.48524 81.3335 5.48524 81.793C5.48524 81.9155 5.02322 82.6201 4.43799 83.3554C2.12789 86.2962 2.12789 91.3202 4.37639 97.8759C5.48524 101.031 6.34768 104.125 6.56329 105.718C6.7173 106.821 6.6249 107.403 6.13207 108.383C5.45444 109.67 4.5304 110.16 2.28189 110.344C1.78907 110.405 1.32705 110.589 1.26545 110.773C1.04984 111.416 2.71311 111.937 5.11563 111.937C7.24092 111.937 7.67214 111.845 9.21222 110.957C10.6907 110.099 11.0603 109.701 11.8919 107.985C12.4464 106.913 12.8776 105.626 12.9084 105.167C12.9392 104.677 13.0316 103.972 13.1548 103.543C13.3704 102.869 13.432 102.961 13.894 104.432C14.202 105.351 14.4177 107.066 14.4177 108.261C14.4177 110.773 13.894 111.845 12.1076 113.224C11.4607 113.714 10.6291 114.388 10.1979 114.725L9.45863 115.337L12.3232 115.184L15.1877 115.031L15.5573 106.3C15.7729 101.491 16.0809 96.5587 16.2657 95.3027C17.005 90.1868 19.9927 86.7251 24.5205 85.7754C26.8922 85.2547 30.3728 85.8061 35.3626 87.4603C37.6419 88.2262 40.2601 89.0839 41.1533 89.329L42.8166 89.7885L44.2643 88.8695C46.1739 87.6441 47.2828 86.4494 48.1452 84.6726L48.8537 83.2328L49.0385 84.4275C49.1617 85.0709 49.1001 86.5107 48.9461 87.6135C48.7921 88.747 48.7921 89.7273 48.9461 89.8804C49.3465 90.3093 51.5642 89.4822 52.4574 88.5938C52.8887 88.1649 53.3815 87.2765 53.5971 86.5719C54.0283 85.1934 54.0899 80.4451 53.7511 78.6377L53.5047 77.5042L52.6422 77.9637C52.1494 78.2088 51.3486 78.7909 50.8866 79.2504C50.3937 79.7099 49.6237 80.2919 49.1617 80.537C48.6997 80.7821 48.0528 81.211 47.7756 81.4867C47.0364 82.1606 43.987 83.6311 43.3402 83.6311C43.0322 83.6311 42.6934 83.7536 42.601 83.9374C42.293 84.4582 40.5681 84.2744 39.49 83.6004C38.4736 82.9877 38.1964 82.4057 37.6727 79.8937C37.5495 79.281 37.1491 78.9134 36.1327 78.4539C34.9006 77.9025 34.7466 77.7187 34.5618 76.6158C34.4078 75.6968 34.0998 75.176 33.3297 74.594C32.3441 73.8588 32.2825 73.675 32.2825 71.9594C32.2825 70.2439 32.2209 70.1214 31.4509 69.8151C27.6007 68.314 27.6315 68.3753 28.4323 65.0361C28.6787 63.9946 28.9559 61.8502 29.0791 60.2878L29.264 57.4389L27.3543 53.6096C25.1982 49.3208 23.2269 44.45 21.8408 40.1306C21.3172 38.5376 20.732 36.7915 20.5471 36.3013C20.0851 35.0453 19.6847 33.2685 19.5307 32.0738C19.4691 31.5224 19.3151 31.1241 19.1919 31.1548C18.6067 31.2467 14.8797 39.0277 13.9248 42.1218C13.1856 44.5113 13.1856 50.1173 13.894 53.0888C14.5409 55.7234 14.5101 55.9378 13.74 54.2223C12.9392 52.4149 12.6312 46.9314 13.1548 43.6841C13.6168 40.8352 14.2637 38.9665 16.0809 35.2904C16.851 33.728 17.4978 32.3189 17.4978 32.1657C17.4978 31.9819 17.621 31.8594 17.775 31.8594C18.1754 31.8594 18.4834 30.8791 18.2062 30.6033C18.0522 30.4502 17.8058 30.4502 17.621 30.5727ZM31.6665 80.9659C31.6665 81.0272 31.2044 81.3641 30.6808 81.7624L29.6644 82.4363L30.5268 81.6705C31.3276 80.9353 31.6665 80.7208 31.6665 80.9659ZM18.4218 87.1846C17.2206 87.9811 14.7565 90.4318 14.1096 91.4428C12.8776 93.434 12.4772 95.272 12.662 98.1823C12.7852 99.6834 12.9392 101.338 13.0316 101.858C13.1856 102.716 12.7236 101.276 11.5223 97.0182C10.8139 94.5062 10.8755 92.3924 11.7071 90.9526C12.0767 90.2787 12.5388 89.7579 12.7544 89.7579C12.9392 89.7579 13.278 89.5434 13.5244 89.2677C14.048 88.6244 17.8058 86.7251 18.5759 86.6945C19.0995 86.6945 19.0995 86.7557 18.4218 87.1846Z" fill="#3A3A3A"/>
</svg>
