<svg width="87" height="142" viewBox="0 0 87 142" fill="none" xmlns="http://www.w3.org/2000/svg">
<path d="M80.7563 0.566186C79.6249 0.878398 78.2399 1.26866 77.6547 1.44428C76.2112 1.85406 75.6846 2.43946 75.6846 3.57123C75.6846 4.78105 76.4648 5.62012 77.5767 5.62012C78.3375 5.62012 83.7603 4.23468 84.4625 3.86393C85.7695 3.16145 85.75 0.917425 84.443 0.234461C83.7018 -0.13629 83.1361 -0.0972638 80.7563 0.566186Z" fill="black"/>
<path d="M64.9774 4.82024C61.4272 5.7959 61.0175 6.03006 60.7444 7.10329C60.4713 8.15701 61.2711 9.44488 62.305 9.6205C62.9097 9.73758 67.7278 8.60581 69.7955 7.84479C71.9997 7.02524 71.4926 3.86409 69.1518 3.8836C68.7226 3.8836 66.85 4.3129 64.9774 4.82024Z" fill="black"/>
<path d="M52.7667 8.07866C48.9044 9.13237 48.4167 9.3275 48.0071 9.83485C47.2658 10.7715 47.5584 12.313 48.5728 12.8984C49.353 13.3667 49.6261 13.3277 53.2348 12.3521C56.9801 11.3374 57.3507 11.0837 57.3507 9.60069C57.3507 8.8787 57.2337 8.60551 56.785 8.1372C56.0633 7.41521 55.2245 7.41521 52.7667 8.07866Z" fill="black"/>
<path d="M16.0931 8.85954C15.1763 9.32785 14.6106 9.93277 14.1229 10.9865C13.6548 11.9621 13.6548 11.9817 13.6548 19.4943V27.0264L12.5819 27.1434C11.2555 27.28 10.007 27.9435 9.42184 28.8216L8.97319 29.485V37.544V45.6225H8.44651C5.81313 45.642 2.37997 47.925 1.05353 50.5203C-0.0388397 52.7058 0.000173392 50.4813 0.000173392 93.7617C0.000173392 122.192 0.0586931 133.9 0.214746 134.642C0.682903 136.847 2.39948 139.208 4.40866 140.379C4.91583 140.671 5.89115 141.14 6.6129 141.413L7.90033 141.92L26.4706 141.979C46.8549 142.037 46.3673 142.057 48.7276 140.867C51.2634 139.579 52.9215 137.745 53.6432 135.403C54.0333 134.193 54.0333 133.452 54.0333 93.9958C54.0333 65.2138 53.9748 53.5449 53.8188 52.8034C53.4481 51.0667 52.6874 49.7203 51.3219 48.3348C49.8004 46.8323 48.3374 46.0518 46.4258 45.7591L45.0603 45.5444V37.505V29.485L44.6117 28.8216C44.0265 27.9435 42.778 27.28 41.5101 27.1434L40.4763 27.0459V19.5918C40.4763 11.3572 40.4568 11.2206 39.2279 9.85471C38.0185 8.5083 38.4086 8.54732 26.9777 8.54732C18.0242 8.54732 16.6003 8.58635 16.0931 8.85954ZM36.2434 14.5379L36.3019 16.3526H34.2342C31.9519 16.3526 31.2497 16.5673 30.8595 17.4258C30.5669 18.0698 30.5669 18.7332 30.8595 19.3772C31.2497 20.2358 31.9519 20.4504 34.2342 20.4504H36.2824V23.7677V27.0849H27.0168H17.7511V20.1772C17.7511 16.3721 17.8097 13.1134 17.8682 12.9573C17.9852 12.6646 18.9215 12.6451 27.0948 12.6841L36.1848 12.7427L36.2434 14.5379ZM40.9639 38.4026V45.6225H27.0168H13.0696V38.4026V31.1827H27.0168H40.9639V38.4026ZM47.167 50.3837C47.7132 50.6959 48.4154 51.2423 48.6885 51.6131C49.7224 52.9595 49.8199 53.4473 49.8979 57.6622L49.976 61.6233H41.0225C31.0741 61.6233 30.762 61.6624 29.338 62.8527C28.3432 63.7113 27.719 65.0186 27.4849 66.6773C27.3679 67.4578 27.3289 78.1511 27.3484 93.1567L27.4069 118.309L27.9141 119.383C28.5188 120.69 29.4551 121.646 30.6255 122.192C31.4643 122.583 31.8544 122.602 40.7299 122.661L49.9565 122.719L49.8979 128.32C49.8394 133.666 49.8199 133.959 49.4103 134.72C48.8446 135.793 47.5962 136.827 46.2502 137.374L45.1579 137.823H27.1143C9.73395 137.823 9.03171 137.803 8.05638 137.452C6.6324 136.925 5.28645 135.852 4.74027 134.818L4.29162 133.959V93.9568C4.29162 63.3405 4.35014 53.779 4.52569 53.1741C4.87681 51.9838 6.3203 50.5398 7.60773 50.091C8.64158 49.7398 9.44135 49.7203 27.4069 49.7788L46.1332 49.8178L47.167 50.3837ZM49.937 92.1616V118.407H41.081H32.2055L31.9129 117.978C31.6398 117.587 31.6008 114.816 31.6008 92.1616C31.6008 69.5067 31.6398 66.7358 31.9129 66.3456L32.2055 65.9163H41.081H49.937V92.1616Z" fill="black"/>
<path d="M48.9041 17.738C48.0849 18.2258 47.7727 19.6503 48.2604 20.6259C48.7286 21.504 49.2552 21.6211 53.1175 21.6211C57.0774 21.6211 57.3505 21.543 57.8576 20.3332C58.2283 19.4746 58.0137 18.5965 57.3115 18.0111C56.7458 17.5233 56.6872 17.5233 53.0005 17.5233C50.8158 17.5233 49.1187 17.6209 48.9041 17.738Z" fill="black"/>
<path d="M62.206 18.0892C61.4452 18.8502 61.4062 20.1576 62.1085 20.9772L62.5766 21.5235L66.7705 21.5821L70.9644 21.6406L71.6277 21.0552C72.1739 20.5674 72.2714 20.3528 72.2714 19.5722C72.2714 18.7917 72.1739 18.577 71.6277 18.0892L71.0035 17.5233H66.8876H62.7717L62.206 18.0892Z" fill="black"/>
<path d="M77.6174 18.0892C76.9737 18.7331 76.8566 19.7088 77.3248 20.6259C77.793 21.504 78.3196 21.6211 82.2404 21.6211H85.8687L86.4344 21.0552C86.9025 20.5869 87 20.3137 87 19.5722C87 18.8307 86.9025 18.5575 86.4344 18.0892L85.8687 17.5233H82.0259H78.1831L77.6174 18.0892Z" fill="black"/>
<path d="M48.5898 26.1872C47.556 26.7531 47.2634 28.4312 48.0436 29.3289C48.3948 29.7386 49.0775 30.0118 51.5938 30.7143C55.3586 31.7485 56.0023 31.7875 56.7826 31.007C57.2312 30.5387 57.3483 30.2655 57.3483 29.5435C57.3483 28.041 56.9581 27.7873 53.2519 26.7921C49.7797 25.8555 49.3116 25.797 48.5898 26.1872Z" fill="black"/>
<path d="M62.0319 29.5629C61.4467 29.7775 60.8615 30.48 60.7445 31.0849C60.6079 31.8264 61.0566 33.0167 61.5833 33.2899C62.149 33.5826 68.5861 35.2803 69.1518 35.2803C70.7319 35.2803 71.6682 33.6412 70.9269 32.1972C70.5368 31.4557 70.1857 31.2996 66.4209 30.3044C63.1633 29.4458 62.6171 29.3482 62.0319 29.5629Z" fill="black"/>
<path d="M76.2503 34.09C75.8016 34.5388 75.6846 34.8315 75.6846 35.4755C75.6846 37.0951 75.9382 37.2512 80.2296 38.3829C83.6628 39.3001 84.1699 39.3001 84.9502 38.3634C85.6329 37.5439 85.6134 36.4511 84.9112 35.6901C84.443 35.2023 83.8968 34.9876 81.3805 34.3242C77.7133 33.3485 77.0305 33.3095 76.2503 34.09Z" fill="black"/>
</svg>
