<svg width="78" height="60" viewBox="0 0 78 60" fill="none" xmlns="http://www.w3.org/2000/svg">
<path d="M43.5802 0.18536C44.2978 0.413319 45.311 1.31089 45.691 2.0375L46.0146 2.63588L46.1131 15.8858C46.1694 23.1661 46.2398 30.5177 46.2538 32.1989L46.296 35.262L46.7182 35.3048C46.9433 35.3333 47.5344 35.319 48.0128 35.262L48.8993 35.1623V22.8954C48.8993 10.8423 48.9134 10.6001 49.1948 9.97321C49.3496 9.61702 49.617 9.18961 49.7859 9.00439C50.4332 8.30628 50.9116 8.26354 58.8622 8.26354C67.2631 8.26354 66.6439 8.17805 67.6571 9.54579C67.9807 9.98745 68.628 10.9705 69.0783 11.7541C69.5286 12.5377 70.1056 13.4923 70.3307 13.8912C70.5699 14.2759 71.3298 15.6578 72.0193 16.9543C72.7088 18.2508 73.4828 19.6613 73.7361 20.0887C74.5523 21.485 76.1846 24.89 76.3394 25.5312C76.4097 25.8589 76.5786 27.1411 76.6912 28.3521C76.8037 29.5631 77.1133 32.5835 77.3948 35.0483C78.3657 43.7819 78.2109 46.3606 76.6208 48.2128C75.6639 49.2955 74.5382 49.6802 71.569 49.8654C70.3729 49.9509 69.3738 50.0364 69.3457 50.0649C69.3175 50.0934 69.2331 50.5208 69.1487 51.0195C68.7828 53.4557 67.9385 55.1084 66.1514 56.9036C65.096 57.9721 64.6457 58.314 63.6325 58.8127C61.7328 59.753 60.4382 60.0379 58.4682 59.9382C56.5685 59.8385 55.7523 59.6248 54.0355 58.7272C51.3338 57.3167 49.4763 54.795 48.7868 51.6036L48.5616 50.5778H38.6269H28.6781L28.5796 51.1762C28.453 51.974 27.7072 54.0684 27.3413 54.7095C26.1874 56.6044 24.7662 57.9436 22.7961 58.9267C19.3344 60.6648 15.4225 60.2802 12.0734 57.8581C10.0752 56.4192 8.44285 53.5982 8.02069 50.8485L7.93626 50.3213L5.72699 50.2644C3.84136 50.2074 3.40514 50.1504 2.71561 49.8654C1.63209 49.4238 0.872208 48.7399 0.393768 47.7568L-0.000244141 46.9448V24.7191V2.49341L0.393768 1.82379C0.829994 1.06869 1.50544 0.484554 2.27939 0.199608C3.01112 -0.0568428 42.764 -0.0710869 43.5802 0.18536ZM24.8365 10.4006V17.6667L33.8706 17.6382L42.9188 17.5955V10.5004C42.9188 4.34555 42.8907 3.39099 42.7077 3.27701C42.5811 3.19152 38.9787 3.13454 33.6595 3.13454H24.8365V10.4006ZM3.26442 3.3055C3.03927 3.47647 3.0252 4.04636 3.05334 10.5431L3.09556 17.5955L12.4111 17.6382L21.7407 17.6667V10.5004C21.7407 6.55387 21.6985 3.27701 21.6422 3.23427C21.6 3.17728 17.491 3.13454 12.5237 3.13454C5.52998 3.13454 3.44735 3.17728 3.26442 3.3055ZM52.1499 11.6259C52.1077 11.6686 52.0373 17.5385 51.9951 24.6621L51.9248 37.5986L51.6152 37.912C51.4182 38.1115 51.0382 38.2682 50.5598 38.3394C50.1517 38.3964 39.2883 38.4534 26.4126 38.4534L3.0252 38.4677V42.1719C3.0252 46.1184 3.08148 46.5316 3.71471 46.8735C3.86951 46.9448 4.9249 47.016 6.07878 47.016H8.17548L8.40063 46.3036C8.73836 45.2351 9.83596 43.2975 10.5677 42.4711C12.6222 40.1631 15.2255 38.9948 18.3072 39.009C20.8964 39.0233 22.6695 39.6074 24.6536 41.1461C26.3281 42.4426 27.3413 43.8958 28.1434 46.1469L28.5655 47.3722H38.6269H48.6742L49.1245 46.0472C50.7005 41.4168 55.1613 38.5389 59.9598 39.0375C61.5077 39.2085 62.4786 39.4935 63.6888 40.1346C66.0247 41.3598 67.8963 43.5682 68.7406 46.0899L68.9798 46.8023L70.1337 46.845C71.555 46.8878 73.5954 46.5601 74.0738 46.1896C74.6648 45.748 74.9181 44.7507 74.9181 42.8131C74.9181 41.8727 74.8337 40.334 74.7211 39.3937C74.6085 38.4534 74.3553 36.0171 74.1582 33.9798C73.9753 31.9424 73.722 29.4064 73.5954 28.3521L73.3843 26.4287L72.2304 24.078C71.5831 22.7957 70.7669 21.2143 70.4151 20.5874C70.0493 19.9463 69.219 18.4361 68.5577 17.225C67.3193 14.9597 65.6167 12.0675 65.2789 11.6686C65.1101 11.4834 64.3361 11.4549 58.6652 11.4977C55.1331 11.5119 52.1921 11.5689 52.1499 11.6259ZM24.8647 28.0244L24.9069 35.262H33.9832H43.0595V32.9825C43.0595 31.7287 43.0455 28.4803 43.0173 25.7449L42.9892 20.8011H33.9128H24.8365L24.8647 28.0244ZM3.09556 28.0672V35.262H12.383H21.6704L21.7126 28.2097C21.7266 24.3344 21.7126 21.0718 21.6704 20.9721C21.6281 20.8296 19.6862 20.8011 12.3548 20.8296L3.09556 20.8723V28.0672ZM56.3292 42.5851C54.5703 43.2832 52.9098 44.9359 52.1781 46.731C51.6855 47.9563 51.5589 50.1219 51.9248 51.3756C52.5861 53.6837 54.2748 55.5501 56.5685 56.4619C57.5535 56.8608 60.0583 56.8893 61.0996 56.5189C62.0424 56.177 63.7592 55.0514 64.3361 54.3818C66.7846 51.5609 66.7565 47.3009 64.2939 44.594C63.3652 43.5824 62.3801 42.927 61.1418 42.4854C59.9035 42.0437 57.5535 42.1007 56.3292 42.5851ZM16.1683 42.4711C14.9018 42.8558 14.0575 43.4114 13.0021 44.5512C10.23 47.5574 10.4129 52.0453 13.4243 54.8235C14.7892 56.0915 16.112 56.6756 17.885 56.8038C19.9958 56.9605 21.7407 56.2624 23.373 54.6383C25.8497 52.1735 26.3281 48.7114 24.6114 45.862C23.5419 44.0811 22.0503 42.8985 20.1928 42.3714C19.1515 42.0864 17.2659 42.1292 16.1683 42.4711Z" fill="#68CAB7"/>
<path d="M64.0533 14.0051C64.5176 14.2758 64.8131 14.7032 66.6425 17.9659C69.5976 23.1946 69.8509 23.9782 68.9643 24.8758L68.4859 25.3602H61.6048C55.1739 25.3602 54.6955 25.3459 54.2452 25.0895C53.429 24.6478 53.3728 24.2916 53.429 19.5758C53.4994 14.9597 53.5275 14.8172 54.5266 14.1476C54.9769 13.8199 55.0614 13.8199 59.3673 13.8199C62.5335 13.8342 63.8281 13.8769 64.0533 14.0051ZM56.6374 19.59V22.2258H61.0138H65.3901L64.7287 20.972C64.1518 19.9177 63.7578 19.2196 62.5898 17.2677C62.4069 16.9543 62.3506 16.9543 59.5221 16.9543H56.6374V19.59Z" fill="#68CAB7"/>
<path d="M59.608 46.7168C60.2835 46.9305 61.1137 47.6144 61.3811 48.1273C61.7329 48.8682 61.7188 50.2074 61.3389 50.8628C60.9167 51.6179 60.0724 52.145 59.1577 52.2305C58.5104 52.3017 58.2853 52.259 57.6239 51.9028C56.6248 51.3757 56.2167 50.6918 56.2167 49.552C56.2167 48.626 56.3856 48.0846 56.8218 47.6144C57.4832 46.902 58.82 46.4604 59.608 46.7168Z" fill="#68CAB7"/>
<path d="M19.3492 46.8877C20.1373 47.2439 20.4328 47.5146 20.7705 48.1842C21.0801 48.8111 21.1223 49.9509 20.8408 50.6205C20.278 52.0025 18.5471 52.6579 17.154 52.0167C16.3941 51.6606 15.8594 50.9339 15.6624 49.9651C15.5217 49.2955 15.5358 49.0961 15.7468 48.5404C16.0564 47.7141 16.6897 47.0872 17.4917 46.8022C18.322 46.5173 18.5893 46.5316 19.3492 46.8877Z" fill="#68CAB7"/>
</svg>
